<?xml version="1.0" encoding="UTF-8" standalone="no"?>
<svg width="362.479mm" height="230.981mm"
 xmlns="http://www.w3.org/2000/svg" xmlns:xlink="http://www.w3.org/1999/xlink"  version="1.2" baseProfile="tiny">
<title>12_counts_by_year</title>
<desc>Rendered by Tableau</desc>
<defs>
</defs>
<g fill="none" stroke="black" stroke-width="1" fill-rule="evenodd" stroke-linecap="square" stroke-linejoin="bevel" >

<g >
<g fill="#ffffff" fill-opacity="1" stroke="none" transform="matrix(1,0,0,1,0,0)"
font-family="Benton Sans Book" font-size="16" font-weight="400" font-style="normal" 
>
<rect x="0" y="0" width="1370" height="873"/>
</g>
</g>

<g >
<g fill="#ffffff" fill-opacity="1" stroke="none" transform="matrix(1,0,0,1,0,0)"
font-family="Benton Sans Book" font-size="16" font-weight="400" font-style="normal" 
>
<rect x="0" y="53" width="1370" height="820"/>
</g>
</g>

<clipPath id ="clip1" >
<rect x="0" y="53" height="820" width="1370" transform="matrix(1,0,0,1,0,0)" />
</clipPath>
<g  clip-path="url(#clip1)" 
>
<g fill="none" stroke="#000000" stroke-opacity="1" stroke-width="1" stroke-linecap="square" stroke-linejoin="bevel" transform="matrix(1,0,0,1,0,0)"
font-family="Benton Sans Book" font-size="16" font-weight="400" font-style="normal" 
>
</g>
</g>

<g >
<g fill="none" stroke="#000000" stroke-opacity="1" stroke-width="1" stroke-linecap="square" stroke-linejoin="bevel" transform="matrix(1,0,0,1,0,0)"
font-family="Benton Sans Book" font-size="16" font-weight="400" font-style="normal" 
>
</g>
</g>

<clipPath id ="clip2" >
<rect x="-1" y="-1" height="34" width="1266" transform="matrix(1,0,0,1,106,53)" />
</clipPath>
<g  clip-path="url(#clip2)" 
>
<g fill="none" stroke="#000000" stroke-opacity="1" stroke-width="1" stroke-linecap="square" stroke-linejoin="bevel" transform="matrix(1,0,0,1,106,53)"
font-family="Benton Sans Book" font-size="16" font-weight="400" font-style="normal" 
>
</g>
</g>

<g  clip-path="url(#clip2)" 
>
<g fill="none" stroke="#333333" stroke-opacity="1" stroke-width="1" stroke-linecap="square" stroke-linejoin="bevel" transform="matrix(1,0,0,1,106,53)"
font-family="Arial" font-size="27" font-weight="400" font-style="normal" 
>
<text fill="#333333" fill-opacity="1" stroke="none" xml:space="preserve" x="505.203" y="25" font-family="Arial" font-size="27" font-weight="400" font-style="normal" 
 >Year post conversion</text>
</g>
</g>

<g >
<g fill="none" stroke="#333333" stroke-opacity="1" stroke-width="1" stroke-linecap="square" stroke-linejoin="bevel" transform="matrix(1,0,0,1,106,53)"
font-family="Arial" font-size="27" font-weight="400" font-style="normal" 
>
</g>
</g>

<clipPath id ="clip3" >
<rect x="-1" y="-1" height="44" width="1266" transform="matrix(1,0,0,1,106,831)" />
</clipPath>
<g  clip-path="url(#clip3)" 
>
<g fill="none" stroke="#333333" stroke-opacity="1" stroke-width="1" stroke-linecap="square" stroke-linejoin="bevel" transform="matrix(1,0,0,1,106,831)"
font-family="Arial" font-size="27" font-weight="400" font-style="normal" 
>
</g>
</g>

<g  clip-path="url(#clip3)" 
>
<g fill="none" stroke="#f5f5f5" stroke-opacity="1" stroke-width="1" stroke-linecap="butt" stroke-linejoin="bevel" transform="matrix(1,0,0,1,106,831)"
font-family="Arial" font-size="27" font-weight="400" font-style="normal" 
>
<polyline fill="none" vector-effect="none" points="0,0 0,5 " />
<polyline fill="none" vector-effect="none" points="158,0 158,5 " />
<polyline fill="none" vector-effect="none" points="316,0 316,5 " />
<polyline fill="none" vector-effect="none" points="474,0 474,5 " />
<polyline fill="none" vector-effect="none" points="632,0 632,5 " />
<polyline fill="none" vector-effect="none" points="790,0 790,5 " />
<polyline fill="none" vector-effect="none" points="948,0 948,5 " />
<polyline fill="none" vector-effect="none" points="1106,0 1106,5 " />
<polyline fill="none" vector-effect="none" points="1264,0 1264,5 " />
</g>
</g>

<g  clip-path="url(#clip3)" 
>
<g fill="none" stroke="#f5f5f5" stroke-opacity="1" stroke-width="1" stroke-linecap="butt" stroke-linejoin="bevel" transform="matrix(1,0,0,1,106,831)"
font-family="Arial" font-size="27" font-weight="400" font-style="normal" 
>
</g>
</g>

<g  clip-path="url(#clip3)" 
>
<g fill="none" stroke="#666666" stroke-opacity="1" stroke-width="1" stroke-linecap="square" stroke-linejoin="bevel" transform="matrix(1,0,0,1,106,831)"
font-family="Arial" font-size="27" font-weight="400" font-style="normal" 
>
<text fill="#666666" fill-opacity="1" stroke="none" xml:space="preserve" x="48.9688" y="28" font-family="Arial" font-size="27" font-weight="400" font-style="normal" 
 >2016</text>
</g>
</g>

<g  clip-path="url(#clip3)" 
>
<g fill="none" stroke="#666666" stroke-opacity="1" stroke-width="1" stroke-linecap="square" stroke-linejoin="bevel" transform="matrix(1,0,0,1,106,831)"
font-family="Arial" font-size="27" font-weight="400" font-style="normal" 
>
<text fill="#666666" fill-opacity="1" stroke="none" xml:space="preserve" x="206.969" y="28" font-family="Arial" font-size="27" font-weight="400" font-style="normal" 
 >2017</text>
</g>
</g>

<g  clip-path="url(#clip3)" 
>
<g fill="none" stroke="#666666" stroke-opacity="1" stroke-width="1" stroke-linecap="square" stroke-linejoin="bevel" transform="matrix(1,0,0,1,106,831)"
font-family="Arial" font-size="27" font-weight="400" font-style="normal" 
>
<text fill="#666666" fill-opacity="1" stroke="none" xml:space="preserve" x="364.969" y="28" font-family="Arial" font-size="27" font-weight="400" font-style="normal" 
 >2019</text>
</g>
</g>

<g  clip-path="url(#clip3)" 
>
<g fill="none" stroke="#666666" stroke-opacity="1" stroke-width="1" stroke-linecap="square" stroke-linejoin="bevel" transform="matrix(1,0,0,1,106,831)"
font-family="Arial" font-size="27" font-weight="400" font-style="normal" 
>
<text fill="#666666" fill-opacity="1" stroke="none" xml:space="preserve" x="522.969" y="28" font-family="Arial" font-size="27" font-weight="400" font-style="normal" 
 >2020</text>
</g>
</g>

<g  clip-path="url(#clip3)" 
>
<g fill="none" stroke="#666666" stroke-opacity="1" stroke-width="1" stroke-linecap="square" stroke-linejoin="bevel" transform="matrix(1,0,0,1,106,831)"
font-family="Arial" font-size="27" font-weight="400" font-style="normal" 
>
<text fill="#666666" fill-opacity="1" stroke="none" xml:space="preserve" x="680.969" y="28" font-family="Arial" font-size="27" font-weight="400" font-style="normal" 
 >2021</text>
</g>
</g>

<g  clip-path="url(#clip3)" 
>
<g fill="none" stroke="#666666" stroke-opacity="1" stroke-width="1" stroke-linecap="square" stroke-linejoin="bevel" transform="matrix(1,0,0,1,106,831)"
font-family="Arial" font-size="27" font-weight="400" font-style="normal" 
>
<text fill="#666666" fill-opacity="1" stroke="none" xml:space="preserve" x="838.969" y="28" font-family="Arial" font-size="27" font-weight="400" font-style="normal" 
 >2022</text>
</g>
</g>

<g  clip-path="url(#clip3)" 
>
<g fill="none" stroke="#666666" stroke-opacity="1" stroke-width="1" stroke-linecap="square" stroke-linejoin="bevel" transform="matrix(1,0,0,1,106,831)"
font-family="Arial" font-size="27" font-weight="400" font-style="normal" 
>
<text fill="#666666" fill-opacity="1" stroke="none" xml:space="preserve" x="996.969" y="28" font-family="Arial" font-size="27" font-weight="400" font-style="normal" 
 >2023</text>
</g>
</g>

<g  clip-path="url(#clip3)" 
>
<g fill="none" stroke="#666666" stroke-opacity="1" stroke-width="1" stroke-linecap="square" stroke-linejoin="bevel" transform="matrix(1,0,0,1,106,831)"
font-family="Arial" font-size="27" font-weight="400" font-style="normal" 
>
<text fill="#666666" fill-opacity="1" stroke="none" xml:space="preserve" x="1154.97" y="28" font-family="Arial" font-size="27" font-weight="400" font-style="normal" 
 >2024</text>
</g>
</g>

<g >
<g fill="none" stroke="#666666" stroke-opacity="1" stroke-width="1" stroke-linecap="square" stroke-linejoin="bevel" transform="matrix(1,0,0,1,106,831)"
font-family="Arial" font-size="27" font-weight="400" font-style="normal" 
>
</g>
</g>

<clipPath id ="clip4" >
<rect x="-1" y="-1" height="748" width="108" transform="matrix(1,0,0,1,0,85)" />
</clipPath>
<g  clip-path="url(#clip4)" 
>
<g fill="none" stroke="#666666" stroke-opacity="1" stroke-width="1" stroke-linecap="square" stroke-linejoin="bevel" transform="matrix(1,0,0,1,0,85)"
font-family="Arial" font-size="27" font-weight="400" font-style="normal" 
>
</g>
</g>

<g  clip-path="url(#clip4)" 
>
<g fill="none" stroke="#f5f5f5" stroke-opacity="1" stroke-width="1" stroke-linecap="butt" stroke-linejoin="bevel" transform="matrix(1,0,0,1,0,85)"
font-family="Arial" font-size="27" font-weight="400" font-style="normal" 
>
<polyline fill="none" vector-effect="none" points="101,746 106,746 " />
<polyline fill="none" vector-effect="none" points="101,687 106,687 " />
<polyline fill="none" vector-effect="none" points="101,628 106,628 " />
<polyline fill="none" vector-effect="none" points="101,569 106,569 " />
<polyline fill="none" vector-effect="none" points="101,510 106,510 " />
<polyline fill="none" vector-effect="none" points="101,451 106,451 " />
<polyline fill="none" vector-effect="none" points="101,392 106,392 " />
<polyline fill="none" vector-effect="none" points="101,333 106,333 " />
<polyline fill="none" vector-effect="none" points="101,274 106,274 " />
<polyline fill="none" vector-effect="none" points="101,215 106,215 " />
<polyline fill="none" vector-effect="none" points="101,156 106,156 " />
<polyline fill="none" vector-effect="none" points="101,97 106,97 " />
<polyline fill="none" vector-effect="none" points="101,38 106,38 " />
</g>
</g>

<g  clip-path="url(#clip4)" 
>
<g fill="none" stroke="#666666" stroke-opacity="1" stroke-width="1" stroke-linecap="square" stroke-linejoin="bevel" transform="matrix(1,0,0,1,0,85)"
font-family="Arial" font-size="27" font-weight="400" font-style="normal" 
>
<text fill="#666666" fill-opacity="1" stroke="none" xml:space="preserve" x="83.9844" y="739" font-family="Arial" font-size="27" font-weight="400" font-style="normal" 
 >0</text>
</g>
</g>

<g  clip-path="url(#clip4)" 
>
<g fill="none" stroke="#666666" stroke-opacity="1" stroke-width="1" stroke-linecap="square" stroke-linejoin="bevel" transform="matrix(1,0,0,1,0,85)"
font-family="Arial" font-size="27" font-weight="400" font-style="normal" 
>
<text fill="#666666" fill-opacity="1" stroke="none" xml:space="preserve" x="68.9688" y="696" font-family="Arial" font-size="27" font-weight="400" font-style="normal" 
 >20</text>
</g>
</g>

<g  clip-path="url(#clip4)" 
>
<g fill="none" stroke="#666666" stroke-opacity="1" stroke-width="1" stroke-linecap="square" stroke-linejoin="bevel" transform="matrix(1,0,0,1,0,85)"
font-family="Arial" font-size="27" font-weight="400" font-style="normal" 
>
<text fill="#666666" fill-opacity="1" stroke="none" xml:space="preserve" x="68.9688" y="637" font-family="Arial" font-size="27" font-weight="400" font-style="normal" 
 >40</text>
</g>
</g>

<g  clip-path="url(#clip4)" 
>
<g fill="none" stroke="#666666" stroke-opacity="1" stroke-width="1" stroke-linecap="square" stroke-linejoin="bevel" transform="matrix(1,0,0,1,0,85)"
font-family="Arial" font-size="27" font-weight="400" font-style="normal" 
>
<text fill="#666666" fill-opacity="1" stroke="none" xml:space="preserve" x="68.9688" y="578" font-family="Arial" font-size="27" font-weight="400" font-style="normal" 
 >60</text>
</g>
</g>

<g  clip-path="url(#clip4)" 
>
<g fill="none" stroke="#666666" stroke-opacity="1" stroke-width="1" stroke-linecap="square" stroke-linejoin="bevel" transform="matrix(1,0,0,1,0,85)"
font-family="Arial" font-size="27" font-weight="400" font-style="normal" 
>
<text fill="#666666" fill-opacity="1" stroke="none" xml:space="preserve" x="68.9688" y="519" font-family="Arial" font-size="27" font-weight="400" font-style="normal" 
 >80</text>
</g>
</g>

<g  clip-path="url(#clip4)" 
>
<g fill="none" stroke="#666666" stroke-opacity="1" stroke-width="1" stroke-linecap="square" stroke-linejoin="bevel" transform="matrix(1,0,0,1,0,85)"
font-family="Arial" font-size="27" font-weight="400" font-style="normal" 
>
<text fill="#666666" fill-opacity="1" stroke="none" xml:space="preserve" x="53.9531" y="460" font-family="Arial" font-size="27" font-weight="400" font-style="normal" 
 >100</text>
</g>
</g>

<g  clip-path="url(#clip4)" 
>
<g fill="none" stroke="#666666" stroke-opacity="1" stroke-width="1" stroke-linecap="square" stroke-linejoin="bevel" transform="matrix(1,0,0,1,0,85)"
font-family="Arial" font-size="27" font-weight="400" font-style="normal" 
>
<text fill="#666666" fill-opacity="1" stroke="none" xml:space="preserve" x="53.9531" y="401" font-family="Arial" font-size="27" font-weight="400" font-style="normal" 
 >120</text>
</g>
</g>

<g  clip-path="url(#clip4)" 
>
<g fill="none" stroke="#666666" stroke-opacity="1" stroke-width="1" stroke-linecap="square" stroke-linejoin="bevel" transform="matrix(1,0,0,1,0,85)"
font-family="Arial" font-size="27" font-weight="400" font-style="normal" 
>
<text fill="#666666" fill-opacity="1" stroke="none" xml:space="preserve" x="53.9531" y="342" font-family="Arial" font-size="27" font-weight="400" font-style="normal" 
 >140</text>
</g>
</g>

<g  clip-path="url(#clip4)" 
>
<g fill="none" stroke="#666666" stroke-opacity="1" stroke-width="1" stroke-linecap="square" stroke-linejoin="bevel" transform="matrix(1,0,0,1,0,85)"
font-family="Arial" font-size="27" font-weight="400" font-style="normal" 
>
<text fill="#666666" fill-opacity="1" stroke="none" xml:space="preserve" x="53.9531" y="283" font-family="Arial" font-size="27" font-weight="400" font-style="normal" 
 >160</text>
</g>
</g>

<g  clip-path="url(#clip4)" 
>
<g fill="none" stroke="#666666" stroke-opacity="1" stroke-width="1" stroke-linecap="square" stroke-linejoin="bevel" transform="matrix(1,0,0,1,0,85)"
font-family="Arial" font-size="27" font-weight="400" font-style="normal" 
>
<text fill="#666666" fill-opacity="1" stroke="none" xml:space="preserve" x="53.9531" y="224" font-family="Arial" font-size="27" font-weight="400" font-style="normal" 
 >180</text>
</g>
</g>

<g  clip-path="url(#clip4)" 
>
<g fill="none" stroke="#666666" stroke-opacity="1" stroke-width="1" stroke-linecap="square" stroke-linejoin="bevel" transform="matrix(1,0,0,1,0,85)"
font-family="Arial" font-size="27" font-weight="400" font-style="normal" 
>
<text fill="#666666" fill-opacity="1" stroke="none" xml:space="preserve" x="53.9531" y="165" font-family="Arial" font-size="27" font-weight="400" font-style="normal" 
 >200</text>
</g>
</g>

<g  clip-path="url(#clip4)" 
>
<g fill="none" stroke="#666666" stroke-opacity="1" stroke-width="1" stroke-linecap="square" stroke-linejoin="bevel" transform="matrix(1,0,0,1,0,85)"
font-family="Arial" font-size="27" font-weight="400" font-style="normal" 
>
<text fill="#666666" fill-opacity="1" stroke="none" xml:space="preserve" x="53.9531" y="106" font-family="Arial" font-size="27" font-weight="400" font-style="normal" 
 >220</text>
</g>
</g>

<g  clip-path="url(#clip4)" 
>
<g fill="none" stroke="#666666" stroke-opacity="1" stroke-width="1" stroke-linecap="square" stroke-linejoin="bevel" transform="matrix(1,0,0,1,0,85)"
font-family="Arial" font-size="27" font-weight="400" font-style="normal" 
>
<text fill="#666666" fill-opacity="1" stroke="none" xml:space="preserve" x="53.9531" y="47" font-family="Arial" font-size="27" font-weight="400" font-style="normal" 
 >240</text>
</g>
</g>

<g  clip-path="url(#clip4)" 
>
<g fill="none" stroke="#666666" stroke-opacity="1" stroke-width="1" stroke-linecap="square" stroke-linejoin="bevel" transform="matrix(1,0,0,1,0,85)"
font-family="Arial" font-size="27" font-weight="400" font-style="normal" 
>
</g>
</g>

<g  clip-path="url(#clip4)" 
>
<g fill="none" stroke="#333333" stroke-opacity="1" stroke-width="1" stroke-linecap="square" stroke-linejoin="bevel" transform="matrix(0,-1,1,0,31.4375,638.57)"
font-family="Arial" font-size="27" font-weight="400" font-style="normal" 
>
<text fill="#333333" fill-opacity="1" stroke="none" xml:space="preserve" x="0" y="0" font-family="Arial" font-size="27" font-weight="400" font-style="normal" 
 >Count of Year post conversion</text>
</g>
</g>

<g  clip-path="url(#clip4)" 
>
<g fill="none" stroke="#666666" stroke-opacity="1" stroke-width="1" stroke-linecap="square" stroke-linejoin="bevel" transform="matrix(1,0,0,1,0,85)"
font-family="Arial" font-size="27" font-weight="400" font-style="normal" 
>
</g>
</g>

<g >
<g fill="none" stroke="#666666" stroke-opacity="1" stroke-width="1" stroke-linecap="square" stroke-linejoin="bevel" transform="matrix(1,0,0,1,0,85)"
font-family="Arial" font-size="27" font-weight="400" font-style="normal" 
>
</g>
</g>

<g  clip-path="url(#clip4)" 
>
<g fill="none" stroke="#666666" stroke-opacity="1" stroke-width="1" stroke-linecap="square" stroke-linejoin="bevel" transform="matrix(1,0,0,1,106,85)"
font-family="Arial" font-size="27" font-weight="400" font-style="normal" 
>
</g>
</g>

<clipPath id ="clip5" >
<rect x="0" y="0" height="747" width="1265" transform="matrix(1,0,0,1,106,85)" />
</clipPath>
<g  clip-path="url(#clip5)" 
>
<g fill="none" stroke="#666666" stroke-opacity="1" stroke-width="1" stroke-linecap="square" stroke-linejoin="bevel" transform="matrix(1,0,0,1,106,85)"
font-family="Arial" font-size="27" font-weight="400" font-style="normal" 
>
</g>
</g>

<clipPath id ="clip6" >
<rect x="0" y="0" height="747" width="1265" transform="matrix(1,0,0,1,106,85)" />
</clipPath>
<g  clip-path="url(#clip6)" 
>
<g fill="none" stroke="#666666" stroke-opacity="1" stroke-width="1" stroke-linecap="square" stroke-linejoin="bevel" transform="matrix(1,0,0,1,106,85)"
font-family="Arial" font-size="27" font-weight="400" font-style="normal" 
>
</g>
</g>

<g  clip-path="url(#clip6)" 
>
<g fill="#ffffff" fill-opacity="1" stroke="none" transform="matrix(1,0,0,1,106,85)"
font-family="Arial" font-size="27" font-weight="400" font-style="normal" 
>
<rect x="0" y="0" width="1265" height="747"/>
</g>
</g>

<g  clip-path="url(#clip6)" 
>
<g fill="#ffffff" fill-opacity="1" stroke="none" transform="matrix(1,0,0,1,106,85)"
font-family="Arial" font-size="27" font-weight="400" font-style="normal" 
>
<rect x="0" y="0" width="1265" height="747"/>
</g>
</g>

<clipPath id ="clip7" >
<rect x="0" y="0" height="747" width="1265" transform="matrix(1,0,0,1,106,85)" />
</clipPath>
<g  clip-path="url(#clip7)" 
>
<g fill="none" stroke="#666666" stroke-opacity="1" stroke-width="1" stroke-linecap="square" stroke-linejoin="bevel" transform="matrix(1,0,0,1,106,85)"
font-family="Arial" font-size="27" font-weight="400" font-style="normal" 
>
</g>
</g>

<g  clip-path="url(#clip7)" 
>
<g fill="#ffffff" fill-opacity="1" stroke="none" transform="matrix(1,0,0,1,106,85)"
font-family="Arial" font-size="27" font-weight="400" font-style="normal" 
>
<rect x="0" y="0" width="1265" height="747"/>
</g>
</g>

<clipPath id ="clip8" >
<rect x="0" y="0" height="747" width="1265" transform="matrix(1,0,0,1,106,85)" />
</clipPath>
<g  clip-path="url(#clip8)" 
>
<g fill="none" stroke="#666666" stroke-opacity="1" stroke-width="1" stroke-linecap="square" stroke-linejoin="bevel" transform="matrix(1,0,0,1,106,85)"
font-family="Arial" font-size="27" font-weight="400" font-style="normal" 
>
</g>
</g>

<clipPath id ="clip9" >
<rect x="0" y="0" height="747" width="1265" transform="matrix(1,0,0,1,106,85)" />
</clipPath>
<g  clip-path="url(#clip9)" 
>
<g fill="none" stroke="#666666" stroke-opacity="1" stroke-width="1" stroke-linecap="square" stroke-linejoin="bevel" transform="matrix(1,0,0,1,106,85)"
font-family="Arial" font-size="27" font-weight="400" font-style="normal" 
>
</g>
</g>

<clipPath id ="clip10" >
<rect x="0" y="0" height="747" width="1265" transform="matrix(1,0,0,1,106,85)" />
</clipPath>
<g  clip-path="url(#clip10)" 
>
<g fill="none" stroke="#666666" stroke-opacity="1" stroke-width="1" stroke-linecap="square" stroke-linejoin="bevel" transform="matrix(1,0,0,1,106,85)"
font-family="Arial" font-size="27" font-weight="400" font-style="normal" 
>
</g>
</g>

<clipPath id ="clip11" >
<rect x="0" y="0" height="747" width="1265" transform="matrix(1,0,0,1,106,85)" />
</clipPath>
<g  clip-path="url(#clip11)" 
>
<g fill="none" stroke="#666666" stroke-opacity="1" stroke-width="1" stroke-linecap="square" stroke-linejoin="bevel" transform="matrix(1,0,0,1,106,85)"
font-family="Arial" font-size="27" font-weight="400" font-style="normal" 
>
</g>
</g>

<g  clip-path="url(#clip11)" 
>
<g fill="#ffffff" fill-opacity="1" stroke="none" transform="matrix(1,0,0,1,106,85)"
font-family="Arial" font-size="27" font-weight="400" font-style="normal" 
>
<rect x="0" y="0" width="1265" height="747"/>
</g>
</g>

<clipPath id ="clip12" >
<rect x="0" y="0" height="747" width="1265" transform="matrix(1,0,0,1,106,85)" />
</clipPath>
<g  clip-path="url(#clip12)" 
>
<g fill="none" stroke="#666666" stroke-opacity="1" stroke-width="1" stroke-linecap="square" stroke-linejoin="bevel" transform="matrix(1,0,0,1,106,85)"
font-family="Arial" font-size="27" font-weight="400" font-style="normal" 
>
</g>
</g>

<clipPath id ="clip13" >
<rect x="0" y="0" height="746" width="1264" transform="matrix(1,0,0,1,106,85)" />
</clipPath>
<g  clip-path="url(#clip13)" 
>
<g fill="none" stroke="#666666" stroke-opacity="1" stroke-width="1" stroke-linecap="square" stroke-linejoin="bevel" transform="matrix(1,0,0,1,106,85)"
font-family="Arial" font-size="27" font-weight="400" font-style="normal" 
>
</g>
</g>

<g  clip-path="url(#clip13)" 
>
<g fill="none" stroke="#f2f2f2" stroke-opacity="1" stroke-width="1" stroke-linecap="square" stroke-linejoin="bevel" transform="matrix(1,0,0,1,106,85)"
font-family="Arial" font-size="27" font-weight="400" font-style="normal" 
>
<polyline fill="none" vector-effect="none" points="0,687 1264,687 " />
<polyline fill="none" vector-effect="none" points="0,628 1264,628 " />
<polyline fill="none" vector-effect="none" points="0,569 1264,569 " />
<polyline fill="none" vector-effect="none" points="0,510 1264,510 " />
<polyline fill="none" vector-effect="none" points="0,451 1264,451 " />
<polyline fill="none" vector-effect="none" points="0,392 1264,392 " />
<polyline fill="none" vector-effect="none" points="0,333 1264,333 " />
<polyline fill="none" vector-effect="none" points="0,274 1264,274 " />
<polyline fill="none" vector-effect="none" points="0,215 1264,215 " />
<polyline fill="none" vector-effect="none" points="0,156 1264,156 " />
<polyline fill="none" vector-effect="none" points="0,97 1264,97 " />
<polyline fill="none" vector-effect="none" points="0,38 1264,38 " />
</g>
</g>

<clipPath id ="clip14" >
<rect x="0" y="0" height="747" width="1265" transform="matrix(1,0,0,1,106,85)" />
</clipPath>
<g  clip-path="url(#clip14)" 
>
<g fill="none" stroke="#f2f2f2" stroke-opacity="1" stroke-width="1" stroke-linecap="square" stroke-linejoin="bevel" transform="matrix(1,0,0,1,106,85)"
font-family="Arial" font-size="27" font-weight="400" font-style="normal" 
>
</g>
</g>

<clipPath id ="clip15" >
<rect x="0" y="0" height="746" width="1264" transform="matrix(1,0,0,1,106,85)" />
</clipPath>
<g  clip-path="url(#clip15)" 
>
<g fill="none" stroke="#f2f2f2" stroke-opacity="1" stroke-width="1" stroke-linecap="square" stroke-linejoin="bevel" transform="matrix(1,0,0,1,106,85)"
font-family="Arial" font-size="27" font-weight="400" font-style="normal" 
>
</g>
</g>

<g  clip-path="url(#clip15)" 
>
<g fill="none" stroke="#cbcbcb" stroke-opacity="1" stroke-dasharray="1,2" stroke-dashoffset="0" stroke-width="1" stroke-linecap="square" stroke-linejoin="bevel" transform="matrix(1,0,0,1,106,85)"
font-family="Arial" font-size="27" font-weight="400" font-style="normal" 
>
<polyline fill="none" vector-effect="none" points="0,746 1264,746 " />
</g>
</g>

<clipPath id ="clip16" >
<rect x="0" y="0" height="747" width="1265" transform="matrix(1,0,0,1,106,85)" />
</clipPath>
<g  clip-path="url(#clip16)" 
>
<g fill="none" stroke="#cbcbcb" stroke-opacity="1" stroke-dasharray="1,2" stroke-dashoffset="0" stroke-width="1" stroke-linecap="square" stroke-linejoin="bevel" transform="matrix(1,0,0,1,106,85)"
font-family="Arial" font-size="27" font-weight="400" font-style="normal" 
>
</g>
</g>

<clipPath id ="clip17" >
<rect x="0" y="0" height="746" width="1264" transform="matrix(1,0,0,1,106,85)" />
</clipPath>
<g  clip-path="url(#clip17)" 
>
<g fill="none" stroke="#cbcbcb" stroke-opacity="1" stroke-dasharray="1,2" stroke-dashoffset="0" stroke-width="1" stroke-linecap="square" stroke-linejoin="bevel" transform="matrix(1,0,0,1,106,85)"
font-family="Arial" font-size="27" font-weight="400" font-style="normal" 
>
</g>
</g>

<clipPath id ="clip18" >
<rect x="0" y="0" height="747" width="1265" transform="matrix(1,0,0,1,106,85)" />
</clipPath>
<g  clip-path="url(#clip18)" 
>
<g fill="none" stroke="#cbcbcb" stroke-opacity="1" stroke-dasharray="1,2" stroke-dashoffset="0" stroke-width="1" stroke-linecap="square" stroke-linejoin="bevel" transform="matrix(1,0,0,1,106,85)"
font-family="Arial" font-size="27" font-weight="400" font-style="normal" 
>
</g>
</g>

<clipPath id ="clip19" >
<rect x="0" y="0" height="747" width="1265" transform="matrix(1,0,0,1,106,85)" />
</clipPath>
<g  clip-path="url(#clip19)" 
>
<g fill="none" stroke="#cbcbcb" stroke-opacity="1" stroke-dasharray="1,2" stroke-dashoffset="0" stroke-width="1" stroke-linecap="square" stroke-linejoin="bevel" transform="matrix(1,0,0,1,106,85)"
font-family="Arial" font-size="27" font-weight="400" font-style="normal" 
>
</g>
</g>

<clipPath id ="clip20" >
<rect x="0" y="0" height="746" width="1264" transform="matrix(1,0,0,1,106,85)" />
</clipPath>
<g  clip-path="url(#clip20)" 
>
<g fill="none" stroke="#cbcbcb" stroke-opacity="1" stroke-dasharray="1,2" stroke-dashoffset="0" stroke-width="1" stroke-linecap="square" stroke-linejoin="bevel" transform="matrix(1,0,0,1,106,85)"
font-family="Arial" font-size="27" font-weight="400" font-style="normal" 
>
</g>
</g>

<clipPath id ="clip21" >
<rect x="0" y="0" height="747" width="1265" transform="matrix(1,0,0,1,106,85)" />
</clipPath>
<g  clip-path="url(#clip21)" 
>
<g fill="none" stroke="#cbcbcb" stroke-opacity="1" stroke-dasharray="1,2" stroke-dashoffset="0" stroke-width="1" stroke-linecap="square" stroke-linejoin="bevel" transform="matrix(1,0,0,1,106,85)"
font-family="Arial" font-size="27" font-weight="400" font-style="normal" 
>
</g>
</g>

<clipPath id ="clip22" >
<rect x="0" y="0" height="746" width="1264" transform="matrix(1,0,0,1,106,85)" />
</clipPath>
<g  clip-path="url(#clip22)" 
>
<g fill="none" stroke="#cbcbcb" stroke-opacity="1" stroke-dasharray="1,2" stroke-dashoffset="0" stroke-width="1" stroke-linecap="square" stroke-linejoin="bevel" transform="matrix(1,0,0,1,106,85)"
font-family="Arial" font-size="27" font-weight="400" font-style="normal" 
>
</g>
</g>

<clipPath id ="clip23" >
<rect x="0" y="0" height="747" width="1265" transform="matrix(1,0,0,1,106,85)" />
</clipPath>
<g  clip-path="url(#clip23)" 
>
<g fill="none" stroke="#cbcbcb" stroke-opacity="1" stroke-dasharray="1,2" stroke-dashoffset="0" stroke-width="1" stroke-linecap="square" stroke-linejoin="bevel" transform="matrix(1,0,0,1,106,85)"
font-family="Arial" font-size="27" font-weight="400" font-style="normal" 
>
</g>
</g>

<clipPath id ="clip24" >
<rect x="0" y="0" height="746" width="1264" transform="matrix(1,0,0,1,106,85)" />
</clipPath>
<g  clip-path="url(#clip24)" 
>
<g fill="none" stroke="#cbcbcb" stroke-opacity="1" stroke-dasharray="1,2" stroke-dashoffset="0" stroke-width="1" stroke-linecap="square" stroke-linejoin="bevel" transform="matrix(1,0,0,1,106,85)"
font-family="Arial" font-size="27" font-weight="400" font-style="normal" 
>
</g>
</g>

<g  clip-path="url(#clip24)" 
>
<g fill="none" stroke="#4e79a7" stroke-opacity="1" stroke-width="3" stroke-linecap="round" stroke-linejoin="round" transform="matrix(1,0,0,1,106,85)"
font-family="Arial" font-size="27" font-weight="400" font-style="normal" 
>
<polyline fill="none" vector-effect="none" points="79.5,327.796 237.5,286.516 395.5,38.832 553.5,660.99 711.5,660.99 869.5,83.0613 1027.5,321.899 1185.5,115.496 " />
</g>
</g>

<g  clip-path="url(#clip24)" 
>
<g fill="none" stroke="#cbcbcb" stroke-opacity="1" stroke-dasharray="1,2" stroke-dashoffset="0" stroke-width="1" stroke-linecap="square" stroke-linejoin="bevel" transform="matrix(1,0,0,1,106,85)"
font-family="Arial" font-size="27" font-weight="400" font-style="normal" 
>
<path vector-effect="none" fill-rule="nonzero" d="M0,0"/>
</g>
</g>

<clipPath id ="clip25" >
<rect x="0" y="0" height="747" width="1265" transform="matrix(1,0,0,1,106,85)" />
</clipPath>
<g  clip-path="url(#clip25)" 
>
<g fill="none" stroke="#cbcbcb" stroke-opacity="1" stroke-dasharray="1,2" stroke-dashoffset="0" stroke-width="1" stroke-linecap="square" stroke-linejoin="bevel" transform="matrix(1,0,0,1,106,85)"
font-family="Arial" font-size="27" font-weight="400" font-style="normal" 
>
</g>
</g>

<clipPath id ="clip26" >
<rect x="0" y="0" height="747" width="1265" transform="matrix(1,0,0,1,106,85)" />
</clipPath>
<g  clip-path="url(#clip26)" 
>
<g fill="none" stroke="#cbcbcb" stroke-opacity="1" stroke-dasharray="1,2" stroke-dashoffset="0" stroke-width="1" stroke-linecap="square" stroke-linejoin="bevel" transform="matrix(1,0,0,1,106,85)"
font-family="Arial" font-size="27" font-weight="400" font-style="normal" 
>
</g>
</g>

<clipPath id ="clip27" >
<rect x="0" y="0" height="746" width="1264" transform="matrix(1,0,0,1,106,85)" />
</clipPath>
<g  clip-path="url(#clip27)" 
>
<g fill="none" stroke="#cbcbcb" stroke-opacity="1" stroke-dasharray="1,2" stroke-dashoffset="0" stroke-width="1" stroke-linecap="square" stroke-linejoin="bevel" transform="matrix(1,0,0,1,106,85)"
font-family="Arial" font-size="27" font-weight="400" font-style="normal" 
>
</g>
</g>

<clipPath id ="clip28" >
<rect x="0" y="0" height="747" width="1265" transform="matrix(1,0,0,1,106,85)" />
</clipPath>
<g  clip-path="url(#clip28)" 
>
<g fill="none" stroke="#cbcbcb" stroke-opacity="1" stroke-dasharray="1,2" stroke-dashoffset="0" stroke-width="1" stroke-linecap="square" stroke-linejoin="bevel" transform="matrix(1,0,0,1,106,85)"
font-family="Arial" font-size="27" font-weight="400" font-style="normal" 
>
</g>
</g>

<clipPath id ="clip29" >
<rect x="0" y="0" height="746" width="1264" transform="matrix(1,0,0,1,106,85)" />
</clipPath>
<g  clip-path="url(#clip29)" 
>
<g fill="none" stroke="#cbcbcb" stroke-opacity="1" stroke-dasharray="1,2" stroke-dashoffset="0" stroke-width="1" stroke-linecap="square" stroke-linejoin="bevel" transform="matrix(1,0,0,1,106,85)"
font-family="Arial" font-size="27" font-weight="400" font-style="normal" 
>
</g>
</g>

<clipPath id ="clip30" >
<rect x="0" y="0" height="747" width="1265" transform="matrix(1,0,0,1,106,85)" />
</clipPath>
<g  clip-path="url(#clip30)" 
>
<g fill="none" stroke="#cbcbcb" stroke-opacity="1" stroke-dasharray="1,2" stroke-dashoffset="0" stroke-width="1" stroke-linecap="square" stroke-linejoin="bevel" transform="matrix(1,0,0,1,106,85)"
font-family="Arial" font-size="27" font-weight="400" font-style="normal" 
>
</g>
</g>

<clipPath id ="clip31" >
<rect x="0" y="0" height="746" width="1264" transform="matrix(1,0,0,1,106,85)" />
</clipPath>
<g  clip-path="url(#clip31)" 
>
<g fill="none" stroke="#cbcbcb" stroke-opacity="1" stroke-dasharray="1,2" stroke-dashoffset="0" stroke-width="1" stroke-linecap="square" stroke-linejoin="bevel" transform="matrix(1,0,0,1,106,85)"
font-family="Arial" font-size="27" font-weight="400" font-style="normal" 
>
</g>
</g>

<clipPath id ="clip32" >
<rect x="0" y="0" height="747" width="1265" transform="matrix(1,0,0,1,106,85)" />
</clipPath>
<g  clip-path="url(#clip32)" 
>
<g fill="none" stroke="#cbcbcb" stroke-opacity="1" stroke-dasharray="1,2" stroke-dashoffset="0" stroke-width="1" stroke-linecap="square" stroke-linejoin="bevel" transform="matrix(1,0,0,1,106,85)"
font-family="Arial" font-size="27" font-weight="400" font-style="normal" 
>
</g>
</g>

<clipPath id ="clip33" >
<rect x="0" y="0" height="747" width="1265" transform="matrix(1,0,0,1,106,85)" />
</clipPath>
<g  clip-path="url(#clip33)" 
>
<g fill="none" stroke="#cbcbcb" stroke-opacity="1" stroke-dasharray="1,2" stroke-dashoffset="0" stroke-width="1" stroke-linecap="square" stroke-linejoin="bevel" transform="matrix(1,0,0,1,106,85)"
font-family="Arial" font-size="27" font-weight="400" font-style="normal" 
>
</g>
</g>

<clipPath id ="clip34" >
<rect x="0" y="0" height="746" width="1264" transform="matrix(1,0,0,1,106,85)" />
</clipPath>
<g  clip-path="url(#clip34)" 
>
<g fill="none" stroke="#cbcbcb" stroke-opacity="1" stroke-dasharray="1,2" stroke-dashoffset="0" stroke-width="1" stroke-linecap="square" stroke-linejoin="bevel" transform="matrix(1,0,0,1,106,85)"
font-family="Arial" font-size="27" font-weight="400" font-style="normal" 
>
</g>
</g>

<clipPath id ="clip35" >
<rect x="0" y="0" height="747" width="1265" transform="matrix(1,0,0,1,106,85)" />
</clipPath>
<g  clip-path="url(#clip35)" 
>
<g fill="none" stroke="#cbcbcb" stroke-opacity="1" stroke-dasharray="1,2" stroke-dashoffset="0" stroke-width="1" stroke-linecap="square" stroke-linejoin="bevel" transform="matrix(1,0,0,1,106,85)"
font-family="Arial" font-size="27" font-weight="400" font-style="normal" 
>
</g>
</g>

<clipPath id ="clip36" >
<rect x="0" y="0" height="746" width="1264" transform="matrix(1,0,0,1,106,85)" />
</clipPath>
<g  clip-path="url(#clip36)" 
>
<g fill="none" stroke="#cbcbcb" stroke-opacity="1" stroke-dasharray="1,2" stroke-dashoffset="0" stroke-width="1" stroke-linecap="square" stroke-linejoin="bevel" transform="matrix(1,0,0,1,106,85)"
font-family="Arial" font-size="27" font-weight="400" font-style="normal" 
>
</g>
</g>

<clipPath id ="clip37" >
<rect x="0" y="0" height="747" width="1265" transform="matrix(1,0,0,1,106,85)" />
</clipPath>
<g  clip-path="url(#clip37)" 
>
<g fill="none" stroke="#cbcbcb" stroke-opacity="1" stroke-dasharray="1,2" stroke-dashoffset="0" stroke-width="1" stroke-linecap="square" stroke-linejoin="bevel" transform="matrix(1,0,0,1,106,85)"
font-family="Arial" font-size="27" font-weight="400" font-style="normal" 
>
</g>
</g>

<clipPath id ="clip38" >
<rect x="0" y="0" height="746" width="1264" transform="matrix(1,0,0,1,106,85)" />
</clipPath>
<g  clip-path="url(#clip38)" 
>
<g fill="none" stroke="#cbcbcb" stroke-opacity="1" stroke-dasharray="1,2" stroke-dashoffset="0" stroke-width="1" stroke-linecap="square" stroke-linejoin="bevel" transform="matrix(1,0,0,1,106,85)"
font-family="Arial" font-size="27" font-weight="400" font-style="normal" 
>
</g>
</g>

<clipPath id ="clip39" >
<rect x="0" y="0" height="747" width="1265" transform="matrix(1,0,0,1,106,85)" />
</clipPath>
<g  clip-path="url(#clip39)" 
>
<g fill="none" stroke="#cbcbcb" stroke-opacity="1" stroke-dasharray="1,2" stroke-dashoffset="0" stroke-width="1" stroke-linecap="square" stroke-linejoin="bevel" transform="matrix(1,0,0,1,106,85)"
font-family="Arial" font-size="27" font-weight="400" font-style="normal" 
>
</g>
</g>

<clipPath id ="clip40" >
<rect x="0" y="0" height="747" width="1265" transform="matrix(1,0,0,1,106,85)" />
</clipPath>
<g  clip-path="url(#clip40)" 
>
<g fill="none" stroke="#cbcbcb" stroke-opacity="1" stroke-dasharray="1,2" stroke-dashoffset="0" stroke-width="1" stroke-linecap="square" stroke-linejoin="bevel" transform="matrix(1,0,0,1,106,85)"
font-family="Arial" font-size="27" font-weight="400" font-style="normal" 
>
</g>
</g>

<clipPath id ="clip41" >
<rect x="0" y="0" height="746" width="1264" transform="matrix(1,0,0,1,106,85)" />
</clipPath>
<g  clip-path="url(#clip41)" 
>
<g fill="none" stroke="#cbcbcb" stroke-opacity="1" stroke-dasharray="1,2" stroke-dashoffset="0" stroke-width="1" stroke-linecap="square" stroke-linejoin="bevel" transform="matrix(1,0,0,1,106,85)"
font-family="Arial" font-size="27" font-weight="400" font-style="normal" 
>
</g>
</g>

<clipPath id ="clip42" >
<rect x="0" y="0" height="747" width="1265" transform="matrix(1,0,0,1,106,85)" />
</clipPath>
<g  clip-path="url(#clip42)" 
>
<g fill="none" stroke="#cbcbcb" stroke-opacity="1" stroke-dasharray="1,2" stroke-dashoffset="0" stroke-width="1" stroke-linecap="square" stroke-linejoin="bevel" transform="matrix(1,0,0,1,106,85)"
font-family="Arial" font-size="27" font-weight="400" font-style="normal" 
>
</g>
</g>

<clipPath id ="clip43" >
<rect x="0" y="0" height="746" width="1264" transform="matrix(1,0,0,1,106,85)" />
</clipPath>
<g  clip-path="url(#clip43)" 
>
<g fill="none" stroke="#cbcbcb" stroke-opacity="1" stroke-dasharray="1,2" stroke-dashoffset="0" stroke-width="1" stroke-linecap="square" stroke-linejoin="bevel" transform="matrix(1,0,0,1,106,85)"
font-family="Arial" font-size="27" font-weight="400" font-style="normal" 
>
</g>
</g>

<clipPath id ="clip44" >
<rect x="0" y="0" height="747" width="1265" transform="matrix(1,0,0,1,106,85)" />
</clipPath>
<g  clip-path="url(#clip44)" 
>
<g fill="none" stroke="#cbcbcb" stroke-opacity="1" stroke-dasharray="1,2" stroke-dashoffset="0" stroke-width="1" stroke-linecap="square" stroke-linejoin="bevel" transform="matrix(1,0,0,1,106,85)"
font-family="Arial" font-size="27" font-weight="400" font-style="normal" 
>
</g>
</g>

<clipPath id ="clip45" >
<rect x="0" y="0" height="746" width="1264" transform="matrix(1,0,0,1,106,85)" />
</clipPath>
<g  clip-path="url(#clip45)" 
>
<g fill="none" stroke="#cbcbcb" stroke-opacity="1" stroke-dasharray="1,2" stroke-dashoffset="0" stroke-width="1" stroke-linecap="square" stroke-linejoin="bevel" transform="matrix(1,0,0,1,106,85)"
font-family="Arial" font-size="27" font-weight="400" font-style="normal" 
>
</g>
</g>

<clipPath id ="clip46" >
<rect x="0" y="0" height="747" width="1265" transform="matrix(1,0,0,1,106,85)" />
</clipPath>
<g  clip-path="url(#clip46)" 
>
<g fill="none" stroke="#cbcbcb" stroke-opacity="1" stroke-dasharray="1,2" stroke-dashoffset="0" stroke-width="1" stroke-linecap="square" stroke-linejoin="bevel" transform="matrix(1,0,0,1,106,85)"
font-family="Arial" font-size="27" font-weight="400" font-style="normal" 
>
</g>
</g>

<clipPath id ="clip47" >
<rect x="0" y="0" height="747" width="1265" transform="matrix(1,0,0,1,106,85)" />
</clipPath>
<g  clip-path="url(#clip47)" 
>
<g fill="none" stroke="#cbcbcb" stroke-opacity="1" stroke-dasharray="1,2" stroke-dashoffset="0" stroke-width="1" stroke-linecap="square" stroke-linejoin="bevel" transform="matrix(1,0,0,1,106,85)"
font-family="Arial" font-size="27" font-weight="400" font-style="normal" 
>
</g>
</g>

<clipPath id ="clip48" >
<rect x="0" y="0" height="746" width="1264" transform="matrix(1,0,0,1,106,85)" />
</clipPath>
<g  clip-path="url(#clip48)" 
>
<g fill="none" stroke="#cbcbcb" stroke-opacity="1" stroke-dasharray="1,2" stroke-dashoffset="0" stroke-width="1" stroke-linecap="square" stroke-linejoin="bevel" transform="matrix(1,0,0,1,106,85)"
font-family="Arial" font-size="27" font-weight="400" font-style="normal" 
>
</g>
</g>

<clipPath id ="clip49" >
<rect x="0" y="0" height="747" width="1265" transform="matrix(1,0,0,1,106,85)" />
</clipPath>
<g  clip-path="url(#clip49)" 
>
<g fill="none" stroke="#cbcbcb" stroke-opacity="1" stroke-dasharray="1,2" stroke-dashoffset="0" stroke-width="1" stroke-linecap="square" stroke-linejoin="bevel" transform="matrix(1,0,0,1,106,85)"
font-family="Arial" font-size="27" font-weight="400" font-style="normal" 
>
</g>
</g>

<clipPath id ="clip50" >
<rect x="0" y="0" height="746" width="1264" transform="matrix(1,0,0,1,106,85)" />
</clipPath>
<g  clip-path="url(#clip50)" 
>
<g fill="none" stroke="#cbcbcb" stroke-opacity="1" stroke-dasharray="1,2" stroke-dashoffset="0" stroke-width="1" stroke-linecap="square" stroke-linejoin="bevel" transform="matrix(1,0,0,1,106,85)"
font-family="Arial" font-size="27" font-weight="400" font-style="normal" 
>
</g>
</g>

<clipPath id ="clip51" >
<rect x="0" y="0" height="747" width="1265" transform="matrix(1,0,0,1,106,85)" />
</clipPath>
<g  clip-path="url(#clip51)" 
>
<g fill="none" stroke="#cbcbcb" stroke-opacity="1" stroke-dasharray="1,2" stroke-dashoffset="0" stroke-width="1" stroke-linecap="square" stroke-linejoin="bevel" transform="matrix(1,0,0,1,106,85)"
font-family="Arial" font-size="27" font-weight="400" font-style="normal" 
>
</g>
</g>

<clipPath id ="clip52" >
<rect x="0" y="0" height="746" width="1264" transform="matrix(1,0,0,1,106,85)" />
</clipPath>
<g  clip-path="url(#clip52)" 
>
<g fill="none" stroke="#cbcbcb" stroke-opacity="1" stroke-dasharray="1,2" stroke-dashoffset="0" stroke-width="1" stroke-linecap="square" stroke-linejoin="bevel" transform="matrix(1,0,0,1,106,85)"
font-family="Arial" font-size="27" font-weight="400" font-style="normal" 
>
</g>
</g>

<clipPath id ="clip53" >
<rect x="0" y="0" height="747" width="1265" transform="matrix(1,0,0,1,106,85)" />
</clipPath>
<g  clip-path="url(#clip53)" 
>
<g fill="none" stroke="#cbcbcb" stroke-opacity="1" stroke-dasharray="1,2" stroke-dashoffset="0" stroke-width="1" stroke-linecap="square" stroke-linejoin="bevel" transform="matrix(1,0,0,1,106,85)"
font-family="Arial" font-size="27" font-weight="400" font-style="normal" 
>
</g>
</g>

<clipPath id ="clip54" >
<rect x="0" y="0" height="747" width="1265" transform="matrix(1,0,0,1,106,85)" />
</clipPath>
<g  clip-path="url(#clip54)" 
>
<g fill="none" stroke="#cbcbcb" stroke-opacity="1" stroke-dasharray="1,2" stroke-dashoffset="0" stroke-width="1" stroke-linecap="square" stroke-linejoin="bevel" transform="matrix(1,0,0,1,106,85)"
font-family="Arial" font-size="27" font-weight="400" font-style="normal" 
>
</g>
</g>

<clipPath id ="clip55" >
<rect x="0" y="0" height="747" width="1265" transform="matrix(1,0,0,1,106,85)" />
</clipPath>
<g  clip-path="url(#clip55)" 
>
<g fill="none" stroke="#cbcbcb" stroke-opacity="1" stroke-dasharray="1,2" stroke-dashoffset="0" stroke-width="1" stroke-linecap="square" stroke-linejoin="bevel" transform="matrix(1,0,0,1,106,85)"
font-family="Arial" font-size="27" font-weight="400" font-style="normal" 
>
</g>
</g>

<g  clip-path="url(#clip55)" 
>
<g fill="none" stroke="#f5f5f5" stroke-opacity="1" stroke-width="1" stroke-linecap="square" stroke-linejoin="bevel" transform="matrix(1,0,0,1,106,85)"
font-family="Arial" font-size="27" font-weight="400" font-style="normal" 
>
<polyline fill="none" vector-effect="none" points="0,746 1264,746 " />
<polyline fill="none" vector-effect="none" points="0,0 0,746 " />
</g>
</g>

<clipPath id ="clip56" >
<rect x="0" y="0" height="747" width="1265" transform="matrix(1,0,0,1,106,85)" />
</clipPath>
<g  clip-path="url(#clip56)" 
>
<g fill="none" stroke="#f5f5f5" stroke-opacity="1" stroke-width="1" stroke-linecap="square" stroke-linejoin="bevel" transform="matrix(1,0,0,1,106,85)"
font-family="Arial" font-size="27" font-weight="400" font-style="normal" 
>
</g>
</g>

<g >
<g fill="none" stroke="#f5f5f5" stroke-opacity="1" stroke-width="1" stroke-linecap="square" stroke-linejoin="bevel" transform="matrix(1,0,0,1,106,85)"
font-family="Arial" font-size="27" font-weight="400" font-style="normal" 
>
</g>
</g>

<g >
<g fill="none" stroke="#333333" stroke-opacity="1" stroke-width="1" stroke-linecap="square" stroke-linejoin="bevel" transform="matrix(1,0,0,1,0,0)"
font-family="Arial" font-size="27" font-weight="400" font-style="normal" 
>
<text fill="#333333" fill-opacity="1" stroke="none" xml:space="preserve" x="4" y="34" font-family="Arial" font-size="27" font-weight="400" font-style="normal" 
 >Condo conversion events over time (2015-2024)</text>
</g>
</g>
</g>
</svg>
