<?xml version="1.0" encoding="UTF-8" standalone="no"?>
<svg width="155.046mm" height="85.1958mm"
 xmlns="http://www.w3.org/2000/svg" xmlns:xlink="http://www.w3.org/1999/xlink"  version="1.2" baseProfile="tiny">
<title>4_year_comparison</title>
<desc>Rendered by Tableau</desc>
<defs>
</defs>
<g fill="none" stroke="black" stroke-width="1" fill-rule="evenodd" stroke-linecap="square" stroke-linejoin="bevel" >

<g >
<g fill="#ffffff" fill-opacity="1" stroke="none" transform="matrix(1,0,0,1,0,0)"
font-family="Benton Sans Book" font-size="16" font-weight="400" font-style="normal" 
>
<rect x="0" y="0" width="586" height="322"/>
</g>
</g>

<g >
<g fill="#ffffff" fill-opacity="1" stroke="none" transform="matrix(1,0,0,1,0,0)"
font-family="Benton Sans Book" font-size="16" font-weight="400" font-style="normal" 
>
<rect x="0" y="49" width="584" height="272"/>
</g>
</g>

<clipPath id ="clip1" >
<rect x="0" y="49" height="272" width="584" transform="matrix(1,0,0,1,0,0)" />
</clipPath>
<g  clip-path="url(#clip1)" 
>
<g fill="none" stroke="#000000" stroke-opacity="1" stroke-width="1" stroke-linecap="square" stroke-linejoin="bevel" transform="matrix(1,0,0,1,0,0)"
font-family="Benton Sans Book" font-size="16" font-weight="400" font-style="normal" 
>
</g>
</g>

<g  clip-path="url(#clip1)" 
>
<g fill="none" stroke="#333333" stroke-opacity="1" stroke-width="1" stroke-linecap="square" stroke-linejoin="bevel" transform="matrix(1,0,0,1,0,0)"
font-family="Arial" font-size="19" font-weight="400" font-style="normal" 
>
<text fill="#333333" fill-opacity="1" stroke="none" xml:space="preserve" x="6" y="85" font-family="Arial" font-size="19" font-weight="400" font-style="normal" 
 >Post Year</text>
</g>
</g>

<g >
<g fill="none" stroke="#333333" stroke-opacity="1" stroke-width="1" stroke-linecap="square" stroke-linejoin="bevel" transform="matrix(1,0,0,1,0,0)"
font-family="Arial" font-size="19" font-weight="400" font-style="normal" 
>
</g>
</g>

<clipPath id ="clip2" >
<rect x="-1" y="-1" height="42" width="482" transform="matrix(1,0,0,1,104,49)" />
</clipPath>
<g  clip-path="url(#clip2)" 
>
<g fill="none" stroke="#333333" stroke-opacity="1" stroke-width="1" stroke-linecap="square" stroke-linejoin="bevel" transform="matrix(1,0,0,1,104,49)"
font-family="Arial" font-size="19" font-weight="400" font-style="normal" 
>
</g>
</g>

<g  clip-path="url(#clip2)" 
>
<g fill="none" stroke="#333333" stroke-opacity="1" stroke-width="1" stroke-linecap="square" stroke-linejoin="bevel" transform="matrix(1,0,0,1,104,49)"
font-family="Arial" font-size="19" font-weight="400" font-style="normal" 
>
<text fill="#333333" fill-opacity="1" stroke="none" xml:space="preserve" x="197.141" y="16" font-family="Arial" font-size="19" font-weight="400" font-style="normal" 
 >Prior Year</text>
</g>
</g>

<g  clip-path="url(#clip2)" 
>
<g fill="none" stroke="#333333" stroke-opacity="1" stroke-width="1" stroke-linecap="square" stroke-linejoin="bevel" transform="matrix(1,0,0,1,104,49)"
font-family="Arial" font-size="19" font-weight="400" font-style="normal" 
>
<text fill="#333333" fill-opacity="1" stroke="none" xml:space="preserve" x="13.75" y="36" font-family="Arial" font-size="19" font-weight="400" font-style="normal" 
 >2015</text>
</g>
</g>

<g  clip-path="url(#clip2)" 
>
<g fill="none" stroke="#333333" stroke-opacity="1" stroke-width="1" stroke-linecap="square" stroke-linejoin="bevel" transform="matrix(1,0,0,1,104,49)"
font-family="Arial" font-size="19" font-weight="400" font-style="normal" 
>
<text fill="#333333" fill-opacity="1" stroke="none" xml:space="preserve" x="73.75" y="36" font-family="Arial" font-size="19" font-weight="400" font-style="normal" 
 >2016</text>
</g>
</g>

<g  clip-path="url(#clip2)" 
>
<g fill="none" stroke="#333333" stroke-opacity="1" stroke-width="1" stroke-linecap="square" stroke-linejoin="bevel" transform="matrix(1,0,0,1,104,49)"
font-family="Arial" font-size="19" font-weight="400" font-style="normal" 
>
<text fill="#333333" fill-opacity="1" stroke="none" xml:space="preserve" x="133.75" y="36" font-family="Arial" font-size="19" font-weight="400" font-style="normal" 
 >2018</text>
</g>
</g>

<g  clip-path="url(#clip2)" 
>
<g fill="none" stroke="#333333" stroke-opacity="1" stroke-width="1" stroke-linecap="square" stroke-linejoin="bevel" transform="matrix(1,0,0,1,104,49)"
font-family="Arial" font-size="19" font-weight="400" font-style="normal" 
>
<text fill="#333333" fill-opacity="1" stroke="none" xml:space="preserve" x="193.75" y="36" font-family="Arial" font-size="19" font-weight="400" font-style="normal" 
 >2019</text>
</g>
</g>

<g  clip-path="url(#clip2)" 
>
<g fill="none" stroke="#333333" stroke-opacity="1" stroke-width="1" stroke-linecap="square" stroke-linejoin="bevel" transform="matrix(1,0,0,1,104,49)"
font-family="Arial" font-size="19" font-weight="400" font-style="normal" 
>
<text fill="#333333" fill-opacity="1" stroke="none" xml:space="preserve" x="253.75" y="36" font-family="Arial" font-size="19" font-weight="400" font-style="normal" 
 >2020</text>
</g>
</g>

<g  clip-path="url(#clip2)" 
>
<g fill="none" stroke="#333333" stroke-opacity="1" stroke-width="1" stroke-linecap="square" stroke-linejoin="bevel" transform="matrix(1,0,0,1,104,49)"
font-family="Arial" font-size="19" font-weight="400" font-style="normal" 
>
<text fill="#333333" fill-opacity="1" stroke="none" xml:space="preserve" x="313.75" y="36" font-family="Arial" font-size="19" font-weight="400" font-style="normal" 
 >2021</text>
</g>
</g>

<g  clip-path="url(#clip2)" 
>
<g fill="none" stroke="#333333" stroke-opacity="1" stroke-width="1" stroke-linecap="square" stroke-linejoin="bevel" transform="matrix(1,0,0,1,104,49)"
font-family="Arial" font-size="19" font-weight="400" font-style="normal" 
>
<text fill="#333333" fill-opacity="1" stroke="none" xml:space="preserve" x="373.75" y="36" font-family="Arial" font-size="19" font-weight="400" font-style="normal" 
 >2022</text>
</g>
</g>

<g  clip-path="url(#clip2)" 
>
<g fill="none" stroke="#333333" stroke-opacity="1" stroke-width="1" stroke-linecap="square" stroke-linejoin="bevel" transform="matrix(1,0,0,1,104,49)"
font-family="Arial" font-size="19" font-weight="400" font-style="normal" 
>
<text fill="#333333" fill-opacity="1" stroke="none" xml:space="preserve" x="433.75" y="36" font-family="Arial" font-size="19" font-weight="400" font-style="normal" 
 >2023</text>
</g>
</g>

<g >
<g fill="none" stroke="#333333" stroke-opacity="1" stroke-width="1" stroke-linecap="square" stroke-linejoin="bevel" transform="matrix(1,0,0,1,104,49)"
font-family="Arial" font-size="19" font-weight="400" font-style="normal" 
>
</g>
</g>

<clipPath id ="clip3" >
<rect x="-1" y="-1" height="234" width="106" transform="matrix(1,0,0,1,0,89)" />
</clipPath>
<g  clip-path="url(#clip3)" 
>
<g fill="none" stroke="#333333" stroke-opacity="1" stroke-width="1" stroke-linecap="square" stroke-linejoin="bevel" transform="matrix(1,0,0,1,0,89)"
font-family="Arial" font-size="19" font-weight="400" font-style="normal" 
>
</g>
</g>

<g  clip-path="url(#clip3)" 
>
<g fill="none" stroke="#333333" stroke-opacity="1" stroke-width="1" stroke-linecap="square" stroke-linejoin="bevel" transform="matrix(1,0,0,1,0,89)"
font-family="Arial" font-size="19" font-weight="400" font-style="normal" 
>
<text fill="#333333" fill-opacity="1" stroke="none" xml:space="preserve" x="6" y="21" font-family="Arial" font-size="19" font-weight="400" font-style="normal" 
 >2016</text>
</g>
</g>

<g  clip-path="url(#clip3)" 
>
<g fill="#f5f5f5" fill-opacity="1" stroke="none" transform="matrix(1,0,0,1,0,89)"
font-family="Arial" font-size="19" font-weight="400" font-style="normal" 
>
<rect x="0" y="29" width="104" height="29"/>
</g>
</g>

<g  clip-path="url(#clip3)" 
>
<g fill="none" stroke="#333333" stroke-opacity="1" stroke-width="1" stroke-linecap="square" stroke-linejoin="bevel" transform="matrix(1,0,0,1,0,89)"
font-family="Arial" font-size="19" font-weight="400" font-style="normal" 
>
<text fill="#333333" fill-opacity="1" stroke="none" xml:space="preserve" x="6" y="50" font-family="Arial" font-size="19" font-weight="400" font-style="normal" 
 >2017</text>
</g>
</g>

<g  clip-path="url(#clip3)" 
>
<g fill="none" stroke="#333333" stroke-opacity="1" stroke-width="1" stroke-linecap="square" stroke-linejoin="bevel" transform="matrix(1,0,0,1,0,89)"
font-family="Arial" font-size="19" font-weight="400" font-style="normal" 
>
<text fill="#333333" fill-opacity="1" stroke="none" xml:space="preserve" x="6" y="79" font-family="Arial" font-size="19" font-weight="400" font-style="normal" 
 >2019</text>
</g>
</g>

<g  clip-path="url(#clip3)" 
>
<g fill="#f5f5f5" fill-opacity="1" stroke="none" transform="matrix(1,0,0,1,0,89)"
font-family="Arial" font-size="19" font-weight="400" font-style="normal" 
>
<rect x="0" y="87" width="104" height="29"/>
</g>
</g>

<g  clip-path="url(#clip3)" 
>
<g fill="none" stroke="#333333" stroke-opacity="1" stroke-width="1" stroke-linecap="square" stroke-linejoin="bevel" transform="matrix(1,0,0,1,0,89)"
font-family="Arial" font-size="19" font-weight="400" font-style="normal" 
>
<text fill="#333333" fill-opacity="1" stroke="none" xml:space="preserve" x="6" y="108" font-family="Arial" font-size="19" font-weight="400" font-style="normal" 
 >2020</text>
</g>
</g>

<g  clip-path="url(#clip3)" 
>
<g fill="none" stroke="#333333" stroke-opacity="1" stroke-width="1" stroke-linecap="square" stroke-linejoin="bevel" transform="matrix(1,0,0,1,0,89)"
font-family="Arial" font-size="19" font-weight="400" font-style="normal" 
>
<text fill="#333333" fill-opacity="1" stroke="none" xml:space="preserve" x="6" y="137" font-family="Arial" font-size="19" font-weight="400" font-style="normal" 
 >2021</text>
</g>
</g>

<g  clip-path="url(#clip3)" 
>
<g fill="#f5f5f5" fill-opacity="1" stroke="none" transform="matrix(1,0,0,1,0,89)"
font-family="Arial" font-size="19" font-weight="400" font-style="normal" 
>
<rect x="0" y="145" width="104" height="29"/>
</g>
</g>

<g  clip-path="url(#clip3)" 
>
<g fill="none" stroke="#333333" stroke-opacity="1" stroke-width="1" stroke-linecap="square" stroke-linejoin="bevel" transform="matrix(1,0,0,1,0,89)"
font-family="Arial" font-size="19" font-weight="400" font-style="normal" 
>
<text fill="#333333" fill-opacity="1" stroke="none" xml:space="preserve" x="6" y="166" font-family="Arial" font-size="19" font-weight="400" font-style="normal" 
 >2022</text>
</g>
</g>

<g  clip-path="url(#clip3)" 
>
<g fill="none" stroke="#333333" stroke-opacity="1" stroke-width="1" stroke-linecap="square" stroke-linejoin="bevel" transform="matrix(1,0,0,1,0,89)"
font-family="Arial" font-size="19" font-weight="400" font-style="normal" 
>
<text fill="#333333" fill-opacity="1" stroke="none" xml:space="preserve" x="6" y="195" font-family="Arial" font-size="19" font-weight="400" font-style="normal" 
 >2023</text>
</g>
</g>

<g  clip-path="url(#clip3)" 
>
<g fill="#f5f5f5" fill-opacity="1" stroke="none" transform="matrix(1,0,0,1,0,89)"
font-family="Arial" font-size="19" font-weight="400" font-style="normal" 
>
<rect x="0" y="203" width="104" height="29"/>
</g>
</g>

<g  clip-path="url(#clip3)" 
>
<g fill="none" stroke="#333333" stroke-opacity="1" stroke-width="1" stroke-linecap="square" stroke-linejoin="bevel" transform="matrix(1,0,0,1,0,89)"
font-family="Arial" font-size="19" font-weight="400" font-style="normal" 
>
<text fill="#333333" fill-opacity="1" stroke="none" xml:space="preserve" x="6" y="224" font-family="Arial" font-size="19" font-weight="400" font-style="normal" 
 >2024</text>
</g>
</g>

<g  clip-path="url(#clip3)" 
>
<g fill="none" stroke="#cbcbcb" stroke-opacity="1" stroke-width="1" stroke-linecap="square" stroke-linejoin="bevel" transform="matrix(1,0,0,1,0,89)"
font-family="Arial" font-size="19" font-weight="400" font-style="normal" 
>
<polyline fill="none" vector-effect="none" points="104,0 0,0 " />
<polyline fill="none" vector-effect="none" points="104,232 0,232 " />
</g>
</g>

<g >
<g fill="none" stroke="#cbcbcb" stroke-opacity="1" stroke-width="1" stroke-linecap="square" stroke-linejoin="bevel" transform="matrix(1,0,0,1,0,89)"
font-family="Arial" font-size="19" font-weight="400" font-style="normal" 
>
</g>
</g>

<g  clip-path="url(#clip3)" 
>
<g fill="none" stroke="#cbcbcb" stroke-opacity="1" stroke-width="1" stroke-linecap="square" stroke-linejoin="bevel" transform="matrix(1,0,0,1,104,89)"
font-family="Arial" font-size="19" font-weight="400" font-style="normal" 
>
</g>
</g>

<clipPath id ="clip4" >
<rect x="0" y="0" height="233" width="481" transform="matrix(1,0,0,1,104,89)" />
</clipPath>
<g  clip-path="url(#clip4)" 
>
<g fill="none" stroke="#cbcbcb" stroke-opacity="1" stroke-width="1" stroke-linecap="square" stroke-linejoin="bevel" transform="matrix(1,0,0,1,104,89)"
font-family="Arial" font-size="19" font-weight="400" font-style="normal" 
>
</g>
</g>

<clipPath id ="clip5" >
<rect x="0" y="0" height="233" width="481" transform="matrix(1,0,0,1,104,89)" />
</clipPath>
<g  clip-path="url(#clip5)" 
>
<g fill="none" stroke="#cbcbcb" stroke-opacity="1" stroke-width="1" stroke-linecap="square" stroke-linejoin="bevel" transform="matrix(1,0,0,1,104,89)"
font-family="Arial" font-size="19" font-weight="400" font-style="normal" 
>
</g>
</g>

<g  clip-path="url(#clip5)" 
>
<g fill="#ffffff" fill-opacity="1" stroke="none" transform="matrix(1,0,0,1,104,89)"
font-family="Arial" font-size="19" font-weight="400" font-style="normal" 
>
<rect x="0" y="0" width="481" height="233"/>
</g>
</g>

<g  clip-path="url(#clip5)" 
>
<g fill="#ffffff" fill-opacity="1" stroke="none" transform="matrix(1,0,0,1,104,89)"
font-family="Arial" font-size="19" font-weight="400" font-style="normal" 
>
<rect x="0" y="0" width="481" height="233"/>
</g>
</g>

<clipPath id ="clip6" >
<rect x="0" y="0" height="233" width="481" transform="matrix(1,0,0,1,104,89)" />
</clipPath>
<g  clip-path="url(#clip6)" 
>
<g fill="none" stroke="#cbcbcb" stroke-opacity="1" stroke-width="1" stroke-linecap="square" stroke-linejoin="bevel" transform="matrix(1,0,0,1,104,89)"
font-family="Arial" font-size="19" font-weight="400" font-style="normal" 
>
</g>
</g>

<g  clip-path="url(#clip6)" 
>
<g fill="#ffffff" fill-opacity="1" stroke="none" transform="matrix(1,0,0,1,104,89)"
font-family="Arial" font-size="19" font-weight="400" font-style="normal" 
>
<rect x="0" y="0" width="481" height="233"/>
</g>
</g>

<clipPath id ="clip7" >
<rect x="0" y="0" height="233" width="481" transform="matrix(1,0,0,1,104,89)" />
</clipPath>
<g  clip-path="url(#clip7)" 
>
<g fill="none" stroke="#cbcbcb" stroke-opacity="1" stroke-width="1" stroke-linecap="square" stroke-linejoin="bevel" transform="matrix(1,0,0,1,104,89)"
font-family="Arial" font-size="19" font-weight="400" font-style="normal" 
>
</g>
</g>

<clipPath id ="clip8" >
<rect x="0" y="0" height="233" width="481" transform="matrix(1,0,0,1,104,89)" />
</clipPath>
<g  clip-path="url(#clip8)" 
>
<g fill="none" stroke="#cbcbcb" stroke-opacity="1" stroke-width="1" stroke-linecap="square" stroke-linejoin="bevel" transform="matrix(1,0,0,1,104,89)"
font-family="Arial" font-size="19" font-weight="400" font-style="normal" 
>
</g>
</g>

<clipPath id ="clip9" >
<rect x="0" y="0" height="233" width="481" transform="matrix(1,0,0,1,104,89)" />
</clipPath>
<g  clip-path="url(#clip9)" 
>
<g fill="none" stroke="#cbcbcb" stroke-opacity="1" stroke-width="1" stroke-linecap="square" stroke-linejoin="bevel" transform="matrix(1,0,0,1,104,89)"
font-family="Arial" font-size="19" font-weight="400" font-style="normal" 
>
</g>
</g>

<clipPath id ="clip10" >
<rect x="0" y="0" height="233" width="481" transform="matrix(1,0,0,1,104,89)" />
</clipPath>
<g  clip-path="url(#clip10)" 
>
<g fill="none" stroke="#cbcbcb" stroke-opacity="1" stroke-width="1" stroke-linecap="square" stroke-linejoin="bevel" transform="matrix(1,0,0,1,104,89)"
font-family="Arial" font-size="19" font-weight="400" font-style="normal" 
>
</g>
</g>

<g  clip-path="url(#clip10)" 
>
<g fill="#ffffff" fill-opacity="1" stroke="none" transform="matrix(1,0,0,1,104,89)"
font-family="Arial" font-size="19" font-weight="400" font-style="normal" 
>
<rect x="0" y="0" width="481" height="233"/>
</g>
</g>

<g  clip-path="url(#clip10)" 
>
<g fill="#f5f5f5" fill-opacity="1" stroke="none" transform="matrix(1,0,0,1,104,89)"
font-family="Arial" font-size="19" font-weight="400" font-style="normal" 
>
<rect x="0" y="29" width="480" height="29"/>
</g>
</g>

<g  clip-path="url(#clip10)" 
>
<g fill="#f5f5f5" fill-opacity="1" stroke="none" transform="matrix(1,0,0,1,104,89)"
font-family="Arial" font-size="19" font-weight="400" font-style="normal" 
>
<rect x="0" y="87" width="480" height="29"/>
</g>
</g>

<g  clip-path="url(#clip10)" 
>
<g fill="#f5f5f5" fill-opacity="1" stroke="none" transform="matrix(1,0,0,1,104,89)"
font-family="Arial" font-size="19" font-weight="400" font-style="normal" 
>
<rect x="0" y="145" width="480" height="29"/>
</g>
</g>

<g  clip-path="url(#clip10)" 
>
<g fill="#f5f5f5" fill-opacity="1" stroke="none" transform="matrix(1,0,0,1,104,89)"
font-family="Arial" font-size="19" font-weight="400" font-style="normal" 
>
<rect x="0" y="203" width="480" height="29"/>
</g>
</g>

<clipPath id ="clip11" >
<rect x="0" y="0" height="233" width="481" transform="matrix(1,0,0,1,104,89)" />
</clipPath>
<g  clip-path="url(#clip11)" 
>
<g fill="none" stroke="#cbcbcb" stroke-opacity="1" stroke-width="1" stroke-linecap="square" stroke-linejoin="bevel" transform="matrix(1,0,0,1,104,89)"
font-family="Arial" font-size="19" font-weight="400" font-style="normal" 
>
</g>
</g>

<clipPath id ="clip12" >
<rect x="0" y="0" height="232" width="480" transform="matrix(1,0,0,1,104,89)" />
</clipPath>
<g  clip-path="url(#clip12)" 
>
<g fill="none" stroke="#cbcbcb" stroke-opacity="1" stroke-width="1" stroke-linecap="square" stroke-linejoin="bevel" transform="matrix(1,0,0,1,104,89)"
font-family="Arial" font-size="19" font-weight="400" font-style="normal" 
>
</g>
</g>

<clipPath id ="clip13" >
<rect x="0" y="0" height="233" width="481" transform="matrix(1,0,0,1,104,89)" />
</clipPath>
<g  clip-path="url(#clip13)" 
>
<g fill="none" stroke="#cbcbcb" stroke-opacity="1" stroke-width="1" stroke-linecap="square" stroke-linejoin="bevel" transform="matrix(1,0,0,1,104,89)"
font-family="Arial" font-size="19" font-weight="400" font-style="normal" 
>
</g>
</g>

<clipPath id ="clip14" >
<rect x="0" y="0" height="233" width="481" transform="matrix(1,0,0,1,104,89)" />
</clipPath>
<g  clip-path="url(#clip14)" 
>
<g fill="none" stroke="#cbcbcb" stroke-opacity="1" stroke-width="1" stroke-linecap="square" stroke-linejoin="bevel" transform="matrix(1,0,0,1,104,89)"
font-family="Arial" font-size="19" font-weight="400" font-style="normal" 
>
</g>
</g>

<clipPath id ="clip15" >
<rect x="0" y="0" height="233" width="481" transform="matrix(1,0,0,1,104,89)" />
</clipPath>
<g  clip-path="url(#clip15)" 
>
<g fill="none" stroke="#cbcbcb" stroke-opacity="1" stroke-width="1" stroke-linecap="square" stroke-linejoin="bevel" transform="matrix(1,0,0,1,104,89)"
font-family="Arial" font-size="19" font-weight="400" font-style="normal" 
>
</g>
</g>

<clipPath id ="clip16" >
<rect x="0" y="0" height="232" width="480" transform="matrix(1,0,0,1,104,89)" />
</clipPath>
<g  clip-path="url(#clip16)" 
>
<g fill="none" stroke="#cbcbcb" stroke-opacity="1" stroke-width="1" stroke-linecap="square" stroke-linejoin="bevel" transform="matrix(1,0,0,1,104,89)"
font-family="Arial" font-size="19" font-weight="400" font-style="normal" 
>
</g>
</g>

<clipPath id ="clip17" >
<rect x="420" y="203" height="29" width="60" transform="matrix(1,0,0,1,104,89)" />
</clipPath>
<g  clip-path="url(#clip17)" 
>
<g fill="none" stroke="#cbcbcb" stroke-opacity="1" stroke-width="1" stroke-linecap="square" stroke-linejoin="bevel" transform="matrix(1,0,0,1,104,89)"
font-family="Arial" font-size="19" font-weight="400" font-style="normal" 
>
</g>
</g>

<g  clip-path="url(#clip17)" 
>
<g fill="none" stroke="#333333" stroke-opacity="1" stroke-width="1" stroke-linecap="square" stroke-linejoin="bevel" transform="matrix(1,0,0,1,104,89)"
font-family="Arial" font-size="21" font-weight="400" font-style="normal" 
>
<text fill="#333333" fill-opacity="1" stroke="none" xml:space="preserve" x="438" y="226" font-family="Arial" font-size="21" font-weight="400" font-style="normal" 
 >234</text>
</g>
</g>

<clipPath id ="clip18" >
<rect x="360" y="174" height="29" width="60" transform="matrix(1,0,0,1,104,89)" />
</clipPath>
<g  clip-path="url(#clip18)" 
>
<g fill="none" stroke="#333333" stroke-opacity="1" stroke-width="1" stroke-linecap="square" stroke-linejoin="bevel" transform="matrix(1,0,0,1,104,89)"
font-family="Arial" font-size="21" font-weight="400" font-style="normal" 
>
</g>
</g>

<g  clip-path="url(#clip18)" 
>
<g fill="none" stroke="#333333" stroke-opacity="1" stroke-width="1" stroke-linecap="square" stroke-linejoin="bevel" transform="matrix(1,0,0,1,104,89)"
font-family="Arial" font-size="21" font-weight="400" font-style="normal" 
>
<text fill="#333333" fill-opacity="1" stroke="none" xml:space="preserve" x="378" y="197" font-family="Arial" font-size="21" font-weight="400" font-style="normal" 
 >868</text>
</g>
</g>

<clipPath id ="clip19" >
<rect x="300" y="145" height="29" width="60" transform="matrix(1,0,0,1,104,89)" />
</clipPath>
<g  clip-path="url(#clip19)" 
>
<g fill="none" stroke="#333333" stroke-opacity="1" stroke-width="1" stroke-linecap="square" stroke-linejoin="bevel" transform="matrix(1,0,0,1,104,89)"
font-family="Arial" font-size="21" font-weight="400" font-style="normal" 
>
</g>
</g>

<g  clip-path="url(#clip19)" 
>
<g fill="none" stroke="#333333" stroke-opacity="1" stroke-width="1" stroke-linecap="square" stroke-linejoin="bevel" transform="matrix(1,0,0,1,104,89)"
font-family="Arial" font-size="21" font-weight="400" font-style="normal" 
>
<text fill="#333333" fill-opacity="1" stroke="none" xml:space="preserve" x="318" y="168" font-family="Arial" font-size="21" font-weight="400" font-style="normal" 
 >253</text>
</g>
</g>

<clipPath id ="clip20" >
<rect x="240" y="116" height="29" width="60" transform="matrix(1,0,0,1,104,89)" />
</clipPath>
<g  clip-path="url(#clip20)" 
>
<g fill="none" stroke="#333333" stroke-opacity="1" stroke-width="1" stroke-linecap="square" stroke-linejoin="bevel" transform="matrix(1,0,0,1,104,89)"
font-family="Arial" font-size="21" font-weight="400" font-style="normal" 
>
</g>
</g>

<g  clip-path="url(#clip20)" 
>
<g fill="none" stroke="#333333" stroke-opacity="1" stroke-width="1" stroke-linecap="square" stroke-linejoin="bevel" transform="matrix(1,0,0,1,104,89)"
font-family="Arial" font-size="21" font-weight="400" font-style="normal" 
>
<text fill="#333333" fill-opacity="1" stroke="none" xml:space="preserve" x="270" y="139" font-family="Arial" font-size="21" font-weight="400" font-style="normal" 
 >86</text>
</g>
</g>

<clipPath id ="clip21" >
<rect x="180" y="87" height="29" width="60" transform="matrix(1,0,0,1,104,89)" />
</clipPath>
<g  clip-path="url(#clip21)" 
>
<g fill="none" stroke="#333333" stroke-opacity="1" stroke-width="1" stroke-linecap="square" stroke-linejoin="bevel" transform="matrix(1,0,0,1,104,89)"
font-family="Arial" font-size="21" font-weight="400" font-style="normal" 
>
</g>
</g>

<g  clip-path="url(#clip21)" 
>
<g fill="none" stroke="#333333" stroke-opacity="1" stroke-width="1" stroke-linecap="square" stroke-linejoin="bevel" transform="matrix(1,0,0,1,104,89)"
font-family="Arial" font-size="21" font-weight="400" font-style="normal" 
>
<text fill="#333333" fill-opacity="1" stroke="none" xml:space="preserve" x="210" y="110" font-family="Arial" font-size="21" font-weight="400" font-style="normal" 
 >57</text>
</g>
</g>

<clipPath id ="clip22" >
<rect x="120" y="58" height="29" width="60" transform="matrix(1,0,0,1,104,89)" />
</clipPath>
<g  clip-path="url(#clip22)" 
>
<g fill="none" stroke="#333333" stroke-opacity="1" stroke-width="1" stroke-linecap="square" stroke-linejoin="bevel" transform="matrix(1,0,0,1,104,89)"
font-family="Arial" font-size="21" font-weight="400" font-style="normal" 
>
</g>
</g>

<g  clip-path="url(#clip22)" 
>
<g fill="none" stroke="#333333" stroke-opacity="1" stroke-width="1" stroke-linecap="square" stroke-linejoin="bevel" transform="matrix(1,0,0,1,104,89)"
font-family="Arial" font-size="21" font-weight="400" font-style="normal" 
>
<text fill="#333333" fill-opacity="1" stroke="none" xml:space="preserve" x="138" y="81" font-family="Arial" font-size="21" font-weight="400" font-style="normal" 
 >297</text>
</g>
</g>

<clipPath id ="clip23" >
<rect x="60" y="29" height="29" width="60" transform="matrix(1,0,0,1,104,89)" />
</clipPath>
<g  clip-path="url(#clip23)" 
>
<g fill="none" stroke="#333333" stroke-opacity="1" stroke-width="1" stroke-linecap="square" stroke-linejoin="bevel" transform="matrix(1,0,0,1,104,89)"
font-family="Arial" font-size="21" font-weight="400" font-style="normal" 
>
</g>
</g>

<g  clip-path="url(#clip23)" 
>
<g fill="none" stroke="#333333" stroke-opacity="1" stroke-width="1" stroke-linecap="square" stroke-linejoin="bevel" transform="matrix(1,0,0,1,104,89)"
font-family="Arial" font-size="21" font-weight="400" font-style="normal" 
>
<text fill="#333333" fill-opacity="1" stroke="none" xml:space="preserve" x="78" y="52" font-family="Arial" font-size="21" font-weight="400" font-style="normal" 
 >220</text>
</g>
</g>

<clipPath id ="clip24" >
<rect x="0" y="0" height="29" width="60" transform="matrix(1,0,0,1,104,89)" />
</clipPath>
<g  clip-path="url(#clip24)" 
>
<g fill="none" stroke="#333333" stroke-opacity="1" stroke-width="1" stroke-linecap="square" stroke-linejoin="bevel" transform="matrix(1,0,0,1,104,89)"
font-family="Arial" font-size="21" font-weight="400" font-style="normal" 
>
</g>
</g>

<g  clip-path="url(#clip24)" 
>
<g fill="none" stroke="#333333" stroke-opacity="1" stroke-width="1" stroke-linecap="square" stroke-linejoin="bevel" transform="matrix(1,0,0,1,104,89)"
font-family="Arial" font-size="21" font-weight="400" font-style="normal" 
>
<text fill="#333333" fill-opacity="1" stroke="none" xml:space="preserve" x="18" y="23" font-family="Arial" font-size="21" font-weight="400" font-style="normal" 
 >230</text>
</g>
</g>

<clipPath id ="clip25" >
<rect x="0" y="0" height="232" width="480" transform="matrix(1,0,0,1,104,89)" />
</clipPath>
<g  clip-path="url(#clip25)" 
>
<g fill="none" stroke="#333333" stroke-opacity="1" stroke-width="1" stroke-linecap="square" stroke-linejoin="bevel" transform="matrix(1,0,0,1,104,89)"
font-family="Arial" font-size="21" font-weight="400" font-style="normal" 
>
</g>
</g>

<clipPath id ="clip26" >
<rect x="0" y="0" height="233" width="481" transform="matrix(1,0,0,1,104,89)" />
</clipPath>
<g  clip-path="url(#clip26)" 
>
<g fill="none" stroke="#333333" stroke-opacity="1" stroke-width="1" stroke-linecap="square" stroke-linejoin="bevel" transform="matrix(1,0,0,1,104,89)"
font-family="Arial" font-size="21" font-weight="400" font-style="normal" 
>
</g>
</g>

<clipPath id ="clip27" >
<rect x="0" y="0" height="233" width="481" transform="matrix(1,0,0,1,104,89)" />
</clipPath>
<g  clip-path="url(#clip27)" 
>
<g fill="none" stroke="#333333" stroke-opacity="1" stroke-width="1" stroke-linecap="square" stroke-linejoin="bevel" transform="matrix(1,0,0,1,104,89)"
font-family="Arial" font-size="21" font-weight="400" font-style="normal" 
>
</g>
</g>

<clipPath id ="clip28" >
<rect x="0" y="0" height="233" width="481" transform="matrix(1,0,0,1,104,89)" />
</clipPath>
<g  clip-path="url(#clip28)" 
>
<g fill="none" stroke="#333333" stroke-opacity="1" stroke-width="1" stroke-linecap="square" stroke-linejoin="bevel" transform="matrix(1,0,0,1,104,89)"
font-family="Arial" font-size="21" font-weight="400" font-style="normal" 
>
</g>
</g>

<clipPath id ="clip29" >
<rect x="0" y="0" height="232" width="480" transform="matrix(1,0,0,1,104,89)" />
</clipPath>
<g  clip-path="url(#clip29)" 
>
<g fill="none" stroke="#333333" stroke-opacity="1" stroke-width="1" stroke-linecap="square" stroke-linejoin="bevel" transform="matrix(1,0,0,1,104,89)"
font-family="Arial" font-size="21" font-weight="400" font-style="normal" 
>
</g>
</g>

<clipPath id ="clip30" >
<rect x="0" y="0" height="233" width="481" transform="matrix(1,0,0,1,104,89)" />
</clipPath>
<g  clip-path="url(#clip30)" 
>
<g fill="none" stroke="#333333" stroke-opacity="1" stroke-width="1" stroke-linecap="square" stroke-linejoin="bevel" transform="matrix(1,0,0,1,104,89)"
font-family="Arial" font-size="21" font-weight="400" font-style="normal" 
>
</g>
</g>

<clipPath id ="clip31" >
<rect x="0" y="0" height="233" width="481" transform="matrix(1,0,0,1,104,89)" />
</clipPath>
<g  clip-path="url(#clip31)" 
>
<g fill="none" stroke="#333333" stroke-opacity="1" stroke-width="1" stroke-linecap="square" stroke-linejoin="bevel" transform="matrix(1,0,0,1,104,89)"
font-family="Arial" font-size="21" font-weight="400" font-style="normal" 
>
</g>
</g>

<clipPath id ="clip32" >
<rect x="0" y="0" height="233" width="481" transform="matrix(1,0,0,1,104,89)" />
</clipPath>
<g  clip-path="url(#clip32)" 
>
<g fill="none" stroke="#333333" stroke-opacity="1" stroke-width="1" stroke-linecap="square" stroke-linejoin="bevel" transform="matrix(1,0,0,1,104,89)"
font-family="Arial" font-size="21" font-weight="400" font-style="normal" 
>
</g>
</g>

<clipPath id ="clip33" >
<rect x="0" y="0" height="232" width="480" transform="matrix(1,0,0,1,104,89)" />
</clipPath>
<g  clip-path="url(#clip33)" 
>
<g fill="none" stroke="#333333" stroke-opacity="1" stroke-width="1" stroke-linecap="square" stroke-linejoin="bevel" transform="matrix(1,0,0,1,104,89)"
font-family="Arial" font-size="21" font-weight="400" font-style="normal" 
>
</g>
</g>

<clipPath id ="clip34" >
<rect x="0" y="0" height="233" width="481" transform="matrix(1,0,0,1,104,89)" />
</clipPath>
<g  clip-path="url(#clip34)" 
>
<g fill="none" stroke="#333333" stroke-opacity="1" stroke-width="1" stroke-linecap="square" stroke-linejoin="bevel" transform="matrix(1,0,0,1,104,89)"
font-family="Arial" font-size="21" font-weight="400" font-style="normal" 
>
</g>
</g>

<clipPath id ="clip35" >
<rect x="0" y="0" height="233" width="481" transform="matrix(1,0,0,1,104,89)" />
</clipPath>
<g  clip-path="url(#clip35)" 
>
<g fill="none" stroke="#333333" stroke-opacity="1" stroke-width="1" stroke-linecap="square" stroke-linejoin="bevel" transform="matrix(1,0,0,1,104,89)"
font-family="Arial" font-size="21" font-weight="400" font-style="normal" 
>
</g>
</g>

<clipPath id ="clip36" >
<rect x="0" y="0" height="233" width="481" transform="matrix(1,0,0,1,104,89)" />
</clipPath>
<g  clip-path="url(#clip36)" 
>
<g fill="none" stroke="#333333" stroke-opacity="1" stroke-width="1" stroke-linecap="square" stroke-linejoin="bevel" transform="matrix(1,0,0,1,104,89)"
font-family="Arial" font-size="21" font-weight="400" font-style="normal" 
>
</g>
</g>

<clipPath id ="clip37" >
<rect x="0" y="0" height="232" width="480" transform="matrix(1,0,0,1,104,89)" />
</clipPath>
<g  clip-path="url(#clip37)" 
>
<g fill="none" stroke="#333333" stroke-opacity="1" stroke-width="1" stroke-linecap="square" stroke-linejoin="bevel" transform="matrix(1,0,0,1,104,89)"
font-family="Arial" font-size="21" font-weight="400" font-style="normal" 
>
</g>
</g>

<clipPath id ="clip38" >
<rect x="0" y="0" height="233" width="481" transform="matrix(1,0,0,1,104,89)" />
</clipPath>
<g  clip-path="url(#clip38)" 
>
<g fill="none" stroke="#333333" stroke-opacity="1" stroke-width="1" stroke-linecap="square" stroke-linejoin="bevel" transform="matrix(1,0,0,1,104,89)"
font-family="Arial" font-size="21" font-weight="400" font-style="normal" 
>
</g>
</g>

<clipPath id ="clip39" >
<rect x="0" y="0" height="233" width="481" transform="matrix(1,0,0,1,104,89)" />
</clipPath>
<g  clip-path="url(#clip39)" 
>
<g fill="none" stroke="#333333" stroke-opacity="1" stroke-width="1" stroke-linecap="square" stroke-linejoin="bevel" transform="matrix(1,0,0,1,104,89)"
font-family="Arial" font-size="21" font-weight="400" font-style="normal" 
>
</g>
</g>

<clipPath id ="clip40" >
<rect x="0" y="0" height="233" width="481" transform="matrix(1,0,0,1,104,89)" />
</clipPath>
<g  clip-path="url(#clip40)" 
>
<g fill="none" stroke="#333333" stroke-opacity="1" stroke-width="1" stroke-linecap="square" stroke-linejoin="bevel" transform="matrix(1,0,0,1,104,89)"
font-family="Arial" font-size="21" font-weight="400" font-style="normal" 
>
</g>
</g>

<clipPath id ="clip41" >
<rect x="0" y="0" height="232" width="480" transform="matrix(1,0,0,1,104,89)" />
</clipPath>
<g  clip-path="url(#clip41)" 
>
<g fill="none" stroke="#333333" stroke-opacity="1" stroke-width="1" stroke-linecap="square" stroke-linejoin="bevel" transform="matrix(1,0,0,1,104,89)"
font-family="Arial" font-size="21" font-weight="400" font-style="normal" 
>
</g>
</g>

<clipPath id ="clip42" >
<rect x="0" y="0" height="233" width="481" transform="matrix(1,0,0,1,104,89)" />
</clipPath>
<g  clip-path="url(#clip42)" 
>
<g fill="none" stroke="#333333" stroke-opacity="1" stroke-width="1" stroke-linecap="square" stroke-linejoin="bevel" transform="matrix(1,0,0,1,104,89)"
font-family="Arial" font-size="21" font-weight="400" font-style="normal" 
>
</g>
</g>

<clipPath id ="clip43" >
<rect x="0" y="0" height="233" width="481" transform="matrix(1,0,0,1,104,89)" />
</clipPath>
<g  clip-path="url(#clip43)" 
>
<g fill="none" stroke="#333333" stroke-opacity="1" stroke-width="1" stroke-linecap="square" stroke-linejoin="bevel" transform="matrix(1,0,0,1,104,89)"
font-family="Arial" font-size="21" font-weight="400" font-style="normal" 
>
</g>
</g>

<clipPath id ="clip44" >
<rect x="0" y="0" height="233" width="481" transform="matrix(1,0,0,1,104,89)" />
</clipPath>
<g  clip-path="url(#clip44)" 
>
<g fill="none" stroke="#333333" stroke-opacity="1" stroke-width="1" stroke-linecap="square" stroke-linejoin="bevel" transform="matrix(1,0,0,1,104,89)"
font-family="Arial" font-size="21" font-weight="400" font-style="normal" 
>
</g>
</g>

<clipPath id ="clip45" >
<rect x="0" y="0" height="233" width="481" transform="matrix(1,0,0,1,104,89)" />
</clipPath>
<g  clip-path="url(#clip45)" 
>
<g fill="none" stroke="#333333" stroke-opacity="1" stroke-width="1" stroke-linecap="square" stroke-linejoin="bevel" transform="matrix(1,0,0,1,104,89)"
font-family="Arial" font-size="21" font-weight="400" font-style="normal" 
>
</g>
</g>

<g  clip-path="url(#clip45)" 
>
<g fill="none" stroke="#cbcbcb" stroke-opacity="1" stroke-width="1" stroke-linecap="square" stroke-linejoin="bevel" transform="matrix(1,0,0,1,104,89)"
font-family="Arial" font-size="21" font-weight="400" font-style="normal" 
>
<polyline fill="none" vector-effect="none" points="0,0 480,0 " />
<polyline fill="none" vector-effect="none" points="0,232 480,232 " />
</g>
</g>

<clipPath id ="clip46" >
<rect x="0" y="0" height="233" width="481" transform="matrix(1,0,0,1,104,89)" />
</clipPath>
<g  clip-path="url(#clip46)" 
>
<g fill="none" stroke="#cbcbcb" stroke-opacity="1" stroke-width="1" stroke-linecap="square" stroke-linejoin="bevel" transform="matrix(1,0,0,1,104,89)"
font-family="Arial" font-size="21" font-weight="400" font-style="normal" 
>
</g>
</g>

<g >
<g fill="none" stroke="#cbcbcb" stroke-opacity="1" stroke-width="1" stroke-linecap="square" stroke-linejoin="bevel" transform="matrix(1,0,0,1,104,89)"
font-family="Arial" font-size="21" font-weight="400" font-style="normal" 
>
</g>
</g>

<g >
<g fill="none" stroke="#333333" stroke-opacity="1" stroke-width="1" stroke-linecap="square" stroke-linejoin="bevel" transform="matrix(1,0,0,1,0,0)"
font-family="Arial" font-size="24" font-weight="400" font-style="normal" 
>
<text fill="#333333" fill-opacity="1" stroke="none" xml:space="preserve" x="4" y="31" font-family="Arial" font-size="24" font-weight="400" font-style="normal" 
 >Year prior to conversion vs year post conversion</text>
</g>
</g>
</g>
</svg>
