<?xml version="1.0" encoding="UTF-8" standalone="no"?>
<svg width="342.106mm" height="117.21mm"
 xmlns="http://www.w3.org/2000/svg" xmlns:xlink="http://www.w3.org/1999/xlink"  version="1.2" baseProfile="tiny">
<title>6_land_use_codes</title>
<desc>Rendered by Tableau</desc>
<defs>
</defs>
<g fill="none" stroke="black" stroke-width="1" fill-rule="evenodd" stroke-linecap="square" stroke-linejoin="bevel" >

<g >
<g fill="#ffffff" fill-opacity="1" stroke="none" transform="matrix(1,0,0,1,0,0)"
font-family="Benton Sans Book" font-size="16" font-weight="400" font-style="normal" 
>
<rect x="0" y="0" width="1293" height="443"/>
</g>
</g>

<g >
<g fill="#ffffff" fill-opacity="1" stroke="none" transform="matrix(1,0,0,1,0,0)"
font-family="Benton Sans Book" font-size="16" font-weight="400" font-style="normal" 
>
<rect x="0" y="49" width="1293" height="394"/>
</g>
</g>

<clipPath id ="clip1" >
<rect x="-1" y="-1" height="76" width="1215" transform="matrix(1,0,0,1,80,369)" />
</clipPath>
<g  clip-path="url(#clip1)" 
>
<g fill="none" stroke="#000000" stroke-opacity="1" stroke-width="1" stroke-linecap="square" stroke-linejoin="bevel" transform="matrix(1,0,0,1,80,369)"
font-family="Benton Sans Book" font-size="16" font-weight="400" font-style="normal" 
>
</g>
</g>

<g  clip-path="url(#clip1)" 
>
<g fill="none" stroke="#f5f5f5" stroke-opacity="1" stroke-width="1" stroke-linecap="butt" stroke-linejoin="bevel" transform="matrix(1,0,0,1,80,369)"
font-family="Benton Sans Book" font-size="16" font-weight="400" font-style="normal" 
>
<polyline fill="none" vector-effect="none" points="0,0 0,5 " />
<polyline fill="none" vector-effect="none" points="102,0 102,5 " />
<polyline fill="none" vector-effect="none" points="204,0 204,5 " />
<polyline fill="none" vector-effect="none" points="306,0 306,5 " />
<polyline fill="none" vector-effect="none" points="408,0 408,5 " />
<polyline fill="none" vector-effect="none" points="511,0 511,5 " />
<polyline fill="none" vector-effect="none" points="613,0 613,5 " />
<polyline fill="none" vector-effect="none" points="715,0 715,5 " />
<polyline fill="none" vector-effect="none" points="817,0 817,5 " />
<polyline fill="none" vector-effect="none" points="919,0 919,5 " />
<polyline fill="none" vector-effect="none" points="1021,0 1021,5 " />
<polyline fill="none" vector-effect="none" points="1123,0 1123,5 " />
</g>
</g>

<g  clip-path="url(#clip1)" 
>
<g fill="none" stroke="#666666" stroke-opacity="1" stroke-width="1" stroke-linecap="square" stroke-linejoin="bevel" transform="matrix(1,0,0,1,80,369)"
font-family="Arial" font-size="19" font-weight="400" font-style="normal" 
>
<text fill="#666666" fill-opacity="1" stroke="none" xml:space="preserve" x="1.71875" y="24" font-family="Arial" font-size="19" font-weight="400" font-style="normal" 
 >0</text>
</g>
</g>

<g  clip-path="url(#clip1)" 
>
<g fill="none" stroke="#666666" stroke-opacity="1" stroke-width="1" stroke-linecap="square" stroke-linejoin="bevel" transform="matrix(1,0,0,1,80,369)"
font-family="Arial" font-size="19" font-weight="400" font-style="normal" 
>
<text fill="#666666" fill-opacity="1" stroke="none" xml:space="preserve" x="91.4375" y="24" font-family="Arial" font-size="19" font-weight="400" font-style="normal" 
 >50</text>
</g>
</g>

<g  clip-path="url(#clip1)" 
>
<g fill="none" stroke="#666666" stroke-opacity="1" stroke-width="1" stroke-linecap="square" stroke-linejoin="bevel" transform="matrix(1,0,0,1,80,369)"
font-family="Arial" font-size="19" font-weight="400" font-style="normal" 
>
<text fill="#666666" fill-opacity="1" stroke="none" xml:space="preserve" x="188.156" y="24" font-family="Arial" font-size="19" font-weight="400" font-style="normal" 
 >100</text>
</g>
</g>

<g  clip-path="url(#clip1)" 
>
<g fill="none" stroke="#666666" stroke-opacity="1" stroke-width="1" stroke-linecap="square" stroke-linejoin="bevel" transform="matrix(1,0,0,1,80,369)"
font-family="Arial" font-size="19" font-weight="400" font-style="normal" 
>
<text fill="#666666" fill-opacity="1" stroke="none" xml:space="preserve" x="290.156" y="24" font-family="Arial" font-size="19" font-weight="400" font-style="normal" 
 >150</text>
</g>
</g>

<g  clip-path="url(#clip1)" 
>
<g fill="none" stroke="#666666" stroke-opacity="1" stroke-width="1" stroke-linecap="square" stroke-linejoin="bevel" transform="matrix(1,0,0,1,80,369)"
font-family="Arial" font-size="19" font-weight="400" font-style="normal" 
>
<text fill="#666666" fill-opacity="1" stroke="none" xml:space="preserve" x="392.156" y="24" font-family="Arial" font-size="19" font-weight="400" font-style="normal" 
 >200</text>
</g>
</g>

<g  clip-path="url(#clip1)" 
>
<g fill="none" stroke="#666666" stroke-opacity="1" stroke-width="1" stroke-linecap="square" stroke-linejoin="bevel" transform="matrix(1,0,0,1,80,369)"
font-family="Arial" font-size="19" font-weight="400" font-style="normal" 
>
<text fill="#666666" fill-opacity="1" stroke="none" xml:space="preserve" x="495.156" y="24" font-family="Arial" font-size="19" font-weight="400" font-style="normal" 
 >250</text>
</g>
</g>

<g  clip-path="url(#clip1)" 
>
<g fill="none" stroke="#666666" stroke-opacity="1" stroke-width="1" stroke-linecap="square" stroke-linejoin="bevel" transform="matrix(1,0,0,1,80,369)"
font-family="Arial" font-size="19" font-weight="400" font-style="normal" 
>
<text fill="#666666" fill-opacity="1" stroke="none" xml:space="preserve" x="597.156" y="24" font-family="Arial" font-size="19" font-weight="400" font-style="normal" 
 >300</text>
</g>
</g>

<g  clip-path="url(#clip1)" 
>
<g fill="none" stroke="#666666" stroke-opacity="1" stroke-width="1" stroke-linecap="square" stroke-linejoin="bevel" transform="matrix(1,0,0,1,80,369)"
font-family="Arial" font-size="19" font-weight="400" font-style="normal" 
>
<text fill="#666666" fill-opacity="1" stroke="none" xml:space="preserve" x="699.156" y="24" font-family="Arial" font-size="19" font-weight="400" font-style="normal" 
 >350</text>
</g>
</g>

<g  clip-path="url(#clip1)" 
>
<g fill="none" stroke="#666666" stroke-opacity="1" stroke-width="1" stroke-linecap="square" stroke-linejoin="bevel" transform="matrix(1,0,0,1,80,369)"
font-family="Arial" font-size="19" font-weight="400" font-style="normal" 
>
<text fill="#666666" fill-opacity="1" stroke="none" xml:space="preserve" x="801.156" y="24" font-family="Arial" font-size="19" font-weight="400" font-style="normal" 
 >400</text>
</g>
</g>

<g  clip-path="url(#clip1)" 
>
<g fill="none" stroke="#666666" stroke-opacity="1" stroke-width="1" stroke-linecap="square" stroke-linejoin="bevel" transform="matrix(1,0,0,1,80,369)"
font-family="Arial" font-size="19" font-weight="400" font-style="normal" 
>
<text fill="#666666" fill-opacity="1" stroke="none" xml:space="preserve" x="903.156" y="24" font-family="Arial" font-size="19" font-weight="400" font-style="normal" 
 >450</text>
</g>
</g>

<g  clip-path="url(#clip1)" 
>
<g fill="none" stroke="#666666" stroke-opacity="1" stroke-width="1" stroke-linecap="square" stroke-linejoin="bevel" transform="matrix(1,0,0,1,80,369)"
font-family="Arial" font-size="19" font-weight="400" font-style="normal" 
>
<text fill="#666666" fill-opacity="1" stroke="none" xml:space="preserve" x="1005.16" y="24" font-family="Arial" font-size="19" font-weight="400" font-style="normal" 
 >500</text>
</g>
</g>

<g  clip-path="url(#clip1)" 
>
<g fill="none" stroke="#666666" stroke-opacity="1" stroke-width="1" stroke-linecap="square" stroke-linejoin="bevel" transform="matrix(1,0,0,1,80,369)"
font-family="Arial" font-size="19" font-weight="400" font-style="normal" 
>
<text fill="#666666" fill-opacity="1" stroke="none" xml:space="preserve" x="1107.16" y="24" font-family="Arial" font-size="19" font-weight="400" font-style="normal" 
 >550</text>
</g>
</g>

<g  clip-path="url(#clip1)" 
>
<g fill="none" stroke="#333333" stroke-opacity="1" stroke-width="1" stroke-linecap="square" stroke-linejoin="bevel" transform="matrix(1,0,0,1,80,369)"
font-family="Arial" font-size="19" font-weight="400" font-style="normal" 
>
<text fill="#333333" fill-opacity="1" stroke="none" xml:space="preserve" x="508.859" y="62" font-family="Arial" font-size="19" font-weight="400" font-style="normal" 
 >Count of land use code</text>
</g>
</g>

<g >
<g fill="none" stroke="#333333" stroke-opacity="1" stroke-width="1" stroke-linecap="square" stroke-linejoin="bevel" transform="matrix(1,0,0,1,80,369)"
font-family="Arial" font-size="19" font-weight="400" font-style="normal" 
>
</g>
</g>

<clipPath id ="clip2" >
<rect x="-1" y="-1" height="322" width="82" transform="matrix(1,0,0,1,0,49)" />
</clipPath>
<g  clip-path="url(#clip2)" 
>
<g fill="none" stroke="#333333" stroke-opacity="1" stroke-width="1" stroke-linecap="square" stroke-linejoin="bevel" transform="matrix(1,0,0,1,0,49)"
font-family="Arial" font-size="19" font-weight="400" font-style="normal" 
>
</g>
</g>

<g  clip-path="url(#clip2)" 
>
<g fill="none" stroke="#666666" stroke-opacity="1" stroke-width="1" stroke-linecap="square" stroke-linejoin="bevel" transform="matrix(1,0,0,1,0,49)"
font-family="Arial" font-size="19" font-weight="400" font-style="normal" 
>
<text fill="#666666" fill-opacity="1" stroke="none" xml:space="preserve" x="50.7188" y="16" font-family="Arial" font-size="19" font-weight="400" font-style="normal" 
 >R3</text>
</g>
</g>

<g  clip-path="url(#clip2)" 
>
<g fill="none" stroke="#666666" stroke-opacity="1" stroke-width="1" stroke-linecap="square" stroke-linejoin="bevel" transform="matrix(1,0,0,1,0,49)"
font-family="Arial" font-size="19" font-weight="400" font-style="normal" 
>
<text fill="#666666" fill-opacity="1" stroke="none" xml:space="preserve" x="50.7188" y="36" font-family="Arial" font-size="19" font-weight="400" font-style="normal" 
 >R2</text>
</g>
</g>

<g  clip-path="url(#clip2)" 
>
<g fill="none" stroke="#666666" stroke-opacity="1" stroke-width="1" stroke-linecap="square" stroke-linejoin="bevel" transform="matrix(1,0,0,1,0,49)"
font-family="Arial" font-size="19" font-weight="400" font-style="normal" 
>
<text fill="#666666" fill-opacity="1" stroke="none" xml:space="preserve" x="47.5625" y="56" font-family="Arial" font-size="19" font-weight="400" font-style="normal" 
 >CD</text>
</g>
</g>

<g  clip-path="url(#clip2)" 
>
<g fill="none" stroke="#666666" stroke-opacity="1" stroke-width="1" stroke-linecap="square" stroke-linejoin="bevel" transform="matrix(1,0,0,1,0,49)"
font-family="Arial" font-size="19" font-weight="400" font-style="normal" 
>
<text fill="#666666" fill-opacity="1" stroke="none" xml:space="preserve" x="50.7188" y="76" font-family="Arial" font-size="19" font-weight="400" font-style="normal" 
 >R1</text>
</g>
</g>

<g  clip-path="url(#clip2)" 
>
<g fill="none" stroke="#666666" stroke-opacity="1" stroke-width="1" stroke-linecap="square" stroke-linejoin="bevel" transform="matrix(1,0,0,1,0,49)"
font-family="Arial" font-size="19" font-weight="400" font-style="normal" 
>
<text fill="#666666" fill-opacity="1" stroke="none" xml:space="preserve" x="45.4688" y="96" font-family="Arial" font-size="19" font-weight="400" font-style="normal" 
 >CM</text>
</g>
</g>

<g  clip-path="url(#clip2)" 
>
<g fill="none" stroke="#666666" stroke-opacity="1" stroke-width="1" stroke-linecap="square" stroke-linejoin="bevel" transform="matrix(1,0,0,1,0,49)"
font-family="Arial" font-size="19" font-weight="400" font-style="normal" 
>
<text fill="#666666" fill-opacity="1" stroke="none" xml:space="preserve" x="50.7188" y="116" font-family="Arial" font-size="19" font-weight="400" font-style="normal" 
 >R4</text>
</g>
</g>

<g  clip-path="url(#clip2)" 
>
<g fill="none" stroke="#666666" stroke-opacity="1" stroke-width="1" stroke-linecap="square" stroke-linejoin="bevel" transform="matrix(1,0,0,1,0,49)"
font-family="Arial" font-size="19" font-weight="400" font-style="normal" 
>
<text fill="#666666" fill-opacity="1" stroke="none" xml:space="preserve" x="62.3281" y="136" font-family="Arial" font-size="19" font-weight="400" font-style="normal" 
 >E</text>
</g>
</g>

<g  clip-path="url(#clip2)" 
>
<g fill="none" stroke="#666666" stroke-opacity="1" stroke-width="1" stroke-linecap="square" stroke-linejoin="bevel" transform="matrix(1,0,0,1,0,49)"
font-family="Arial" font-size="19" font-weight="400" font-style="normal" 
>
<text fill="#666666" fill-opacity="1" stroke="none" xml:space="preserve" x="62.2969" y="156" font-family="Arial" font-size="19" font-weight="400" font-style="normal" 
 >A</text>
</g>
</g>

<g  clip-path="url(#clip2)" 
>
<g fill="none" stroke="#666666" stroke-opacity="1" stroke-width="1" stroke-linecap="square" stroke-linejoin="bevel" transform="matrix(1,0,0,1,0,49)"
font-family="Arial" font-size="19" font-weight="400" font-style="normal" 
>
<text fill="#666666" fill-opacity="1" stroke="none" xml:space="preserve" x="61.2813" y="176" font-family="Arial" font-size="19" font-weight="400" font-style="normal" 
 >C</text>
</g>
</g>

<g  clip-path="url(#clip2)" 
>
<g fill="none" stroke="#666666" stroke-opacity="1" stroke-width="1" stroke-linecap="square" stroke-linejoin="bevel" transform="matrix(1,0,0,1,0,49)"
font-family="Arial" font-size="19" font-weight="400" font-style="normal" 
>
<text fill="#666666" fill-opacity="1" stroke="none" xml:space="preserve" x="50.7188" y="196" font-family="Arial" font-size="19" font-weight="400" font-style="normal" 
 >RL</text>
</g>
</g>

<g  clip-path="url(#clip2)" 
>
<g fill="none" stroke="#666666" stroke-opacity="1" stroke-width="1" stroke-linecap="square" stroke-linejoin="bevel" transform="matrix(1,0,0,1,0,49)"
font-family="Arial" font-size="19" font-weight="400" font-style="normal" 
>
<text fill="#666666" fill-opacity="1" stroke="none" xml:space="preserve" x="47.5625" y="216" font-family="Arial" font-size="19" font-weight="400" font-style="normal" 
 >RC</text>
</g>
</g>

<g  clip-path="url(#clip2)" 
>
<g fill="none" stroke="#666666" stroke-opacity="1" stroke-width="1" stroke-linecap="square" stroke-linejoin="bevel" transform="matrix(1,0,0,1,0,49)"
font-family="Arial" font-size="19" font-weight="400" font-style="normal" 
>
<text fill="#666666" fill-opacity="1" stroke="none" xml:space="preserve" x="47.5625" y="236" font-family="Arial" font-size="19" font-weight="400" font-style="normal" 
 >CC</text>
</g>
</g>

<g  clip-path="url(#clip2)" 
>
<g fill="none" stroke="#666666" stroke-opacity="1" stroke-width="1" stroke-linecap="square" stroke-linejoin="bevel" transform="matrix(1,0,0,1,0,49)"
font-family="Arial" font-size="19" font-weight="400" font-style="normal" 
>
<text fill="#666666" fill-opacity="1" stroke="none" xml:space="preserve" x="50.7188" y="256" font-family="Arial" font-size="19" font-weight="400" font-style="normal" 
 >CL</text>
</g>
</g>

<g  clip-path="url(#clip2)" 
>
<g fill="none" stroke="#666666" stroke-opacity="1" stroke-width="1" stroke-linecap="square" stroke-linejoin="bevel" transform="matrix(1,0,0,1,0,49)"
font-family="Arial" font-size="19" font-weight="400" font-style="normal" 
>
<text fill="#666666" fill-opacity="1" stroke="none" xml:space="preserve" x="49.625" y="276" font-family="Arial" font-size="19" font-weight="400" font-style="normal" 
 >EA</text>
</g>
</g>

<g  clip-path="url(#clip2)" 
>
<g fill="none" stroke="#666666" stroke-opacity="1" stroke-width="1" stroke-linecap="square" stroke-linejoin="bevel" transform="matrix(1,0,0,1,0,49)"
font-family="Arial" font-size="19" font-weight="400" font-style="normal" 
>
<text fill="#666666" fill-opacity="1" stroke="none" xml:space="preserve" x="69.7344" y="296" font-family="Arial" font-size="19" font-weight="400" font-style="normal" 
 >I</text>
</g>
</g>

<g  clip-path="url(#clip2)" 
>
<g fill="none" stroke="#666666" stroke-opacity="1" stroke-width="1" stroke-linecap="square" stroke-linejoin="bevel" transform="matrix(1,0,0,1,0,49)"
font-family="Arial" font-size="19" font-weight="400" font-style="normal" 
>
<text fill="#666666" fill-opacity="1" stroke="none" xml:space="preserve" x="9.59375" y="316" font-family="Arial" font-size="19" font-weight="400" font-style="normal" 
 >RL - RL</text>
</g>
</g>

<g >
<g fill="none" stroke="#666666" stroke-opacity="1" stroke-width="1" stroke-linecap="square" stroke-linejoin="bevel" transform="matrix(1,0,0,1,0,49)"
font-family="Arial" font-size="19" font-weight="400" font-style="normal" 
>
</g>
</g>

<g  clip-path="url(#clip2)" 
>
<g fill="none" stroke="#666666" stroke-opacity="1" stroke-width="1" stroke-linecap="square" stroke-linejoin="bevel" transform="matrix(1,0,0,1,80,49)"
font-family="Arial" font-size="19" font-weight="400" font-style="normal" 
>
</g>
</g>

<clipPath id ="clip3" >
<rect x="0" y="0" height="321" width="1214" transform="matrix(1,0,0,1,80,49)" />
</clipPath>
<g  clip-path="url(#clip3)" 
>
<g fill="none" stroke="#666666" stroke-opacity="1" stroke-width="1" stroke-linecap="square" stroke-linejoin="bevel" transform="matrix(1,0,0,1,80,49)"
font-family="Arial" font-size="19" font-weight="400" font-style="normal" 
>
</g>
</g>

<clipPath id ="clip4" >
<rect x="0" y="0" height="321" width="1214" transform="matrix(1,0,0,1,80,49)" />
</clipPath>
<g  clip-path="url(#clip4)" 
>
<g fill="none" stroke="#666666" stroke-opacity="1" stroke-width="1" stroke-linecap="square" stroke-linejoin="bevel" transform="matrix(1,0,0,1,80,49)"
font-family="Arial" font-size="19" font-weight="400" font-style="normal" 
>
</g>
</g>

<g  clip-path="url(#clip4)" 
>
<g fill="#ffffff" fill-opacity="1" stroke="none" transform="matrix(1,0,0,1,80,49)"
font-family="Arial" font-size="19" font-weight="400" font-style="normal" 
>
<rect x="0" y="0" width="1214" height="321"/>
</g>
</g>

<g  clip-path="url(#clip4)" 
>
<g fill="#ffffff" fill-opacity="1" stroke="none" transform="matrix(1,0,0,1,80,49)"
font-family="Arial" font-size="19" font-weight="400" font-style="normal" 
>
<rect x="0" y="0" width="1214" height="321"/>
</g>
</g>

<clipPath id ="clip5" >
<rect x="0" y="0" height="321" width="1214" transform="matrix(1,0,0,1,80,49)" />
</clipPath>
<g  clip-path="url(#clip5)" 
>
<g fill="none" stroke="#666666" stroke-opacity="1" stroke-width="1" stroke-linecap="square" stroke-linejoin="bevel" transform="matrix(1,0,0,1,80,49)"
font-family="Arial" font-size="19" font-weight="400" font-style="normal" 
>
</g>
</g>

<g  clip-path="url(#clip5)" 
>
<g fill="#ffffff" fill-opacity="1" stroke="none" transform="matrix(1,0,0,1,80,49)"
font-family="Arial" font-size="19" font-weight="400" font-style="normal" 
>
<rect x="0" y="0" width="1214" height="321"/>
</g>
</g>

<clipPath id ="clip6" >
<rect x="0" y="0" height="321" width="1214" transform="matrix(1,0,0,1,80,49)" />
</clipPath>
<g  clip-path="url(#clip6)" 
>
<g fill="none" stroke="#666666" stroke-opacity="1" stroke-width="1" stroke-linecap="square" stroke-linejoin="bevel" transform="matrix(1,0,0,1,80,49)"
font-family="Arial" font-size="19" font-weight="400" font-style="normal" 
>
</g>
</g>

<clipPath id ="clip7" >
<rect x="0" y="0" height="321" width="1214" transform="matrix(1,0,0,1,80,49)" />
</clipPath>
<g  clip-path="url(#clip7)" 
>
<g fill="none" stroke="#666666" stroke-opacity="1" stroke-width="1" stroke-linecap="square" stroke-linejoin="bevel" transform="matrix(1,0,0,1,80,49)"
font-family="Arial" font-size="19" font-weight="400" font-style="normal" 
>
</g>
</g>

<clipPath id ="clip8" >
<rect x="0" y="0" height="321" width="1214" transform="matrix(1,0,0,1,80,49)" />
</clipPath>
<g  clip-path="url(#clip8)" 
>
<g fill="none" stroke="#666666" stroke-opacity="1" stroke-width="1" stroke-linecap="square" stroke-linejoin="bevel" transform="matrix(1,0,0,1,80,49)"
font-family="Arial" font-size="19" font-weight="400" font-style="normal" 
>
</g>
</g>

<clipPath id ="clip9" >
<rect x="0" y="0" height="321" width="1214" transform="matrix(1,0,0,1,80,49)" />
</clipPath>
<g  clip-path="url(#clip9)" 
>
<g fill="none" stroke="#666666" stroke-opacity="1" stroke-width="1" stroke-linecap="square" stroke-linejoin="bevel" transform="matrix(1,0,0,1,80,49)"
font-family="Arial" font-size="19" font-weight="400" font-style="normal" 
>
</g>
</g>

<g  clip-path="url(#clip9)" 
>
<g fill="#ffffff" fill-opacity="1" stroke="none" transform="matrix(1,0,0,1,80,49)"
font-family="Arial" font-size="19" font-weight="400" font-style="normal" 
>
<rect x="0" y="0" width="1214" height="321"/>
</g>
</g>

<clipPath id ="clip10" >
<rect x="0" y="0" height="321" width="1214" transform="matrix(1,0,0,1,80,49)" />
</clipPath>
<g  clip-path="url(#clip10)" 
>
<g fill="none" stroke="#666666" stroke-opacity="1" stroke-width="1" stroke-linecap="square" stroke-linejoin="bevel" transform="matrix(1,0,0,1,80,49)"
font-family="Arial" font-size="19" font-weight="400" font-style="normal" 
>
</g>
</g>

<clipPath id ="clip11" >
<rect x="0" y="0" height="320" width="1213" transform="matrix(1,0,0,1,80,49)" />
</clipPath>
<g  clip-path="url(#clip11)" 
>
<g fill="none" stroke="#666666" stroke-opacity="1" stroke-width="1" stroke-linecap="square" stroke-linejoin="bevel" transform="matrix(1,0,0,1,80,49)"
font-family="Arial" font-size="19" font-weight="400" font-style="normal" 
>
</g>
</g>

<g  clip-path="url(#clip11)" 
>
<g fill="none" stroke="#f2f2f2" stroke-opacity="1" stroke-width="1" stroke-linecap="square" stroke-linejoin="bevel" transform="matrix(1,0,0,1,80,49)"
font-family="Arial" font-size="19" font-weight="400" font-style="normal" 
>
<polyline fill="none" vector-effect="none" points="102,319 102,0 " />
<polyline fill="none" vector-effect="none" points="204,319 204,0 " />
<polyline fill="none" vector-effect="none" points="306,319 306,0 " />
<polyline fill="none" vector-effect="none" points="408,319 408,0 " />
<polyline fill="none" vector-effect="none" points="511,319 511,0 " />
<polyline fill="none" vector-effect="none" points="613,319 613,0 " />
<polyline fill="none" vector-effect="none" points="715,319 715,0 " />
<polyline fill="none" vector-effect="none" points="817,319 817,0 " />
<polyline fill="none" vector-effect="none" points="919,319 919,0 " />
<polyline fill="none" vector-effect="none" points="1021,319 1021,0 " />
<polyline fill="none" vector-effect="none" points="1123,319 1123,0 " />
</g>
</g>

<clipPath id ="clip12" >
<rect x="0" y="0" height="321" width="1214" transform="matrix(1,0,0,1,80,49)" />
</clipPath>
<g  clip-path="url(#clip12)" 
>
<g fill="none" stroke="#f2f2f2" stroke-opacity="1" stroke-width="1" stroke-linecap="square" stroke-linejoin="bevel" transform="matrix(1,0,0,1,80,49)"
font-family="Arial" font-size="19" font-weight="400" font-style="normal" 
>
</g>
</g>

<clipPath id ="clip13" >
<rect x="0" y="0" height="320" width="1213" transform="matrix(1,0,0,1,80,49)" />
</clipPath>
<g  clip-path="url(#clip13)" 
>
<g fill="none" stroke="#f2f2f2" stroke-opacity="1" stroke-width="1" stroke-linecap="square" stroke-linejoin="bevel" transform="matrix(1,0,0,1,80,49)"
font-family="Arial" font-size="19" font-weight="400" font-style="normal" 
>
</g>
</g>

<g  clip-path="url(#clip13)" 
>
<g fill="none" stroke="#cbcbcb" stroke-opacity="1" stroke-dasharray="1,2" stroke-dashoffset="0" stroke-width="1" stroke-linecap="square" stroke-linejoin="bevel" transform="matrix(1,0,0,1,80,49)"
font-family="Arial" font-size="19" font-weight="400" font-style="normal" 
>
<polyline fill="none" vector-effect="none" points="0,319 0,0 " />
</g>
</g>

<clipPath id ="clip14" >
<rect x="0" y="0" height="321" width="1214" transform="matrix(1,0,0,1,80,49)" />
</clipPath>
<g  clip-path="url(#clip14)" 
>
<g fill="none" stroke="#cbcbcb" stroke-opacity="1" stroke-dasharray="1,2" stroke-dashoffset="0" stroke-width="1" stroke-linecap="square" stroke-linejoin="bevel" transform="matrix(1,0,0,1,80,49)"
font-family="Arial" font-size="19" font-weight="400" font-style="normal" 
>
</g>
</g>

<clipPath id ="clip15" >
<rect x="0" y="0" height="320" width="1213" transform="matrix(1,0,0,1,80,49)" />
</clipPath>
<g  clip-path="url(#clip15)" 
>
<g fill="none" stroke="#cbcbcb" stroke-opacity="1" stroke-dasharray="1,2" stroke-dashoffset="0" stroke-width="1" stroke-linecap="square" stroke-linejoin="bevel" transform="matrix(1,0,0,1,80,49)"
font-family="Arial" font-size="19" font-weight="400" font-style="normal" 
>
</g>
</g>

<clipPath id ="clip16" >
<rect x="0" y="0" height="321" width="1214" transform="matrix(1,0,0,1,80,49)" />
</clipPath>
<g  clip-path="url(#clip16)" 
>
<g fill="none" stroke="#cbcbcb" stroke-opacity="1" stroke-dasharray="1,2" stroke-dashoffset="0" stroke-width="1" stroke-linecap="square" stroke-linejoin="bevel" transform="matrix(1,0,0,1,80,49)"
font-family="Arial" font-size="19" font-weight="400" font-style="normal" 
>
</g>
</g>

<clipPath id ="clip17" >
<rect x="0" y="0" height="321" width="1214" transform="matrix(1,0,0,1,80,49)" />
</clipPath>
<g  clip-path="url(#clip17)" 
>
<g fill="none" stroke="#cbcbcb" stroke-opacity="1" stroke-dasharray="1,2" stroke-dashoffset="0" stroke-width="1" stroke-linecap="square" stroke-linejoin="bevel" transform="matrix(1,0,0,1,80,49)"
font-family="Arial" font-size="19" font-weight="400" font-style="normal" 
>
</g>
</g>

<clipPath id ="clip18" >
<rect x="0" y="0" height="320" width="1213" transform="matrix(1,0,0,1,80,49)" />
</clipPath>
<g  clip-path="url(#clip18)" 
>
<g fill="none" stroke="#cbcbcb" stroke-opacity="1" stroke-dasharray="1,2" stroke-dashoffset="0" stroke-width="1" stroke-linecap="square" stroke-linejoin="bevel" transform="matrix(1,0,0,1,80,49)"
font-family="Arial" font-size="19" font-weight="400" font-style="normal" 
>
</g>
</g>

<clipPath id ="clip19" >
<rect x="0" y="0" height="321" width="1214" transform="matrix(1,0,0,1,80,49)" />
</clipPath>
<g  clip-path="url(#clip19)" 
>
<g fill="none" stroke="#cbcbcb" stroke-opacity="1" stroke-dasharray="1,2" stroke-dashoffset="0" stroke-width="1" stroke-linecap="square" stroke-linejoin="bevel" transform="matrix(1,0,0,1,80,49)"
font-family="Arial" font-size="19" font-weight="400" font-style="normal" 
>
</g>
</g>

<clipPath id ="clip20" >
<rect x="0" y="0" height="320" width="1213" transform="matrix(1,0,0,1,80,49)" />
</clipPath>
<g  clip-path="url(#clip20)" 
>
<g fill="none" stroke="#cbcbcb" stroke-opacity="1" stroke-dasharray="1,2" stroke-dashoffset="0" stroke-width="1" stroke-linecap="square" stroke-linejoin="bevel" transform="matrix(1,0,0,1,80,49)"
font-family="Arial" font-size="19" font-weight="400" font-style="normal" 
>
</g>
</g>

<clipPath id ="clip21" >
<rect x="0" y="0" height="321" width="1214" transform="matrix(1,0,0,1,80,49)" />
</clipPath>
<g  clip-path="url(#clip21)" 
>
<g fill="none" stroke="#cbcbcb" stroke-opacity="1" stroke-dasharray="1,2" stroke-dashoffset="0" stroke-width="1" stroke-linecap="square" stroke-linejoin="bevel" transform="matrix(1,0,0,1,80,49)"
font-family="Arial" font-size="19" font-weight="400" font-style="normal" 
>
</g>
</g>

<clipPath id ="clip22" >
<rect x="0" y="0" height="320" width="1213" transform="matrix(1,0,0,1,80,49)" />
</clipPath>
<g  clip-path="url(#clip22)" 
>
<g fill="none" stroke="#cbcbcb" stroke-opacity="1" stroke-dasharray="1,2" stroke-dashoffset="0" stroke-width="1" stroke-linecap="square" stroke-linejoin="bevel" transform="matrix(1,0,0,1,80,49)"
font-family="Arial" font-size="19" font-weight="400" font-style="normal" 
>
</g>
</g>

<g  clip-path="url(#clip22)" 
>
<g fill="#4e79a7" fill-opacity="1" stroke="none" transform="matrix(1,0,0,1,80,49)"
font-family="Arial" font-size="19" font-weight="400" font-style="normal" 
>
<rect x="0" y="303" width="8" height="15"/>
</g>
</g>

<g  clip-path="url(#clip22)" 
>
<g fill="#4e79a7" fill-opacity="1" stroke="none" transform="matrix(1,0,0,1,80,49)"
font-family="Arial" font-size="19" font-weight="400" font-style="normal" 
>
<rect x="0" y="283" width="10" height="15"/>
</g>
</g>

<g  clip-path="url(#clip22)" 
>
<g fill="#4e79a7" fill-opacity="1" stroke="none" transform="matrix(1,0,0,1,80,49)"
font-family="Arial" font-size="19" font-weight="400" font-style="normal" 
>
<rect x="0" y="263" width="14" height="15"/>
</g>
</g>

<g  clip-path="url(#clip22)" 
>
<g fill="#4e79a7" fill-opacity="1" stroke="none" transform="matrix(1,0,0,1,80,49)"
font-family="Arial" font-size="19" font-weight="400" font-style="normal" 
>
<rect x="0" y="243" width="20" height="15"/>
</g>
</g>

<g  clip-path="url(#clip22)" 
>
<g fill="#4e79a7" fill-opacity="1" stroke="none" transform="matrix(1,0,0,1,80,49)"
font-family="Arial" font-size="19" font-weight="400" font-style="normal" 
>
<rect x="0" y="223" width="39" height="15"/>
</g>
</g>

<g  clip-path="url(#clip22)" 
>
<g fill="#4e79a7" fill-opacity="1" stroke="none" transform="matrix(1,0,0,1,80,49)"
font-family="Arial" font-size="19" font-weight="400" font-style="normal" 
>
<rect x="0" y="203" width="106" height="15"/>
</g>
</g>

<g  clip-path="url(#clip22)" 
>
<g fill="#4e79a7" fill-opacity="1" stroke="none" transform="matrix(1,0,0,1,80,49)"
font-family="Arial" font-size="19" font-weight="400" font-style="normal" 
>
<rect x="0" y="183" width="106" height="15"/>
</g>
</g>

<g  clip-path="url(#clip22)" 
>
<g fill="#4e79a7" fill-opacity="1" stroke="none" transform="matrix(1,0,0,1,80,49)"
font-family="Arial" font-size="19" font-weight="400" font-style="normal" 
>
<rect x="0" y="163" width="125" height="15"/>
</g>
</g>

<g  clip-path="url(#clip22)" 
>
<g fill="#4e79a7" fill-opacity="1" stroke="none" transform="matrix(1,0,0,1,80,49)"
font-family="Arial" font-size="19" font-weight="400" font-style="normal" 
>
<rect x="0" y="143" width="188" height="15"/>
</g>
</g>

<g  clip-path="url(#clip22)" 
>
<g fill="#4e79a7" fill-opacity="1" stroke="none" transform="matrix(1,0,0,1,80,49)"
font-family="Arial" font-size="19" font-weight="400" font-style="normal" 
>
<rect x="0" y="123" width="219" height="15"/>
</g>
</g>

<g  clip-path="url(#clip22)" 
>
<g fill="#4e79a7" fill-opacity="1" stroke="none" transform="matrix(1,0,0,1,80,49)"
font-family="Arial" font-size="19" font-weight="400" font-style="normal" 
>
<rect x="0" y="103" width="241" height="15"/>
</g>
</g>

<g  clip-path="url(#clip22)" 
>
<g fill="#4e79a7" fill-opacity="1" stroke="none" transform="matrix(1,0,0,1,80,49)"
font-family="Arial" font-size="19" font-weight="400" font-style="normal" 
>
<rect x="0" y="83" width="265" height="15"/>
</g>
</g>

<g  clip-path="url(#clip22)" 
>
<g fill="#4e79a7" fill-opacity="1" stroke="none" transform="matrix(1,0,0,1,80,49)"
font-family="Arial" font-size="19" font-weight="400" font-style="normal" 
>
<rect x="0" y="63" width="317" height="15"/>
</g>
</g>

<g  clip-path="url(#clip22)" 
>
<g fill="#4e79a7" fill-opacity="1" stroke="none" transform="matrix(1,0,0,1,80,49)"
font-family="Arial" font-size="19" font-weight="400" font-style="normal" 
>
<rect x="0" y="43" width="827" height="15"/>
</g>
</g>

<g  clip-path="url(#clip22)" 
>
<g fill="#4e79a7" fill-opacity="1" stroke="none" transform="matrix(1,0,0,1,80,49)"
font-family="Arial" font-size="19" font-weight="400" font-style="normal" 
>
<rect x="0" y="23" width="945" height="15"/>
</g>
</g>

<g  clip-path="url(#clip22)" 
>
<g fill="#4e79a7" fill-opacity="1" stroke="none" transform="matrix(1,0,0,1,80,49)"
font-family="Arial" font-size="19" font-weight="400" font-style="normal" 
>
<rect x="0" y="3" width="1154" height="15"/>
</g>
</g>

<clipPath id ="clip23" >
<rect x="0" y="0" height="321" width="1214" transform="matrix(1,0,0,1,80,49)" />
</clipPath>
<g  clip-path="url(#clip23)" 
>
<g fill="#4e79a7" fill-opacity="1" stroke="none" transform="matrix(1,0,0,1,80,49)"
font-family="Arial" font-size="19" font-weight="400" font-style="normal" 
>
</g>
</g>

<clipPath id ="clip24" >
<rect x="0" y="0" height="321" width="1214" transform="matrix(1,0,0,1,80,49)" />
</clipPath>
<g  clip-path="url(#clip24)" 
>
<g fill="#4e79a7" fill-opacity="1" stroke="none" transform="matrix(1,0,0,1,80,49)"
font-family="Arial" font-size="19" font-weight="400" font-style="normal" 
>
</g>
</g>

<clipPath id ="clip25" >
<rect x="0" y="0" height="320" width="1213" transform="matrix(1,0,0,1,80,49)" />
</clipPath>
<g  clip-path="url(#clip25)" 
>
<g fill="#4e79a7" fill-opacity="1" stroke="none" transform="matrix(1,0,0,1,80,49)"
font-family="Arial" font-size="19" font-weight="400" font-style="normal" 
>
</g>
</g>

<clipPath id ="clip26" >
<rect x="0" y="0" height="321" width="1214" transform="matrix(1,0,0,1,80,49)" />
</clipPath>
<g  clip-path="url(#clip26)" 
>
<g fill="#4e79a7" fill-opacity="1" stroke="none" transform="matrix(1,0,0,1,80,49)"
font-family="Arial" font-size="19" font-weight="400" font-style="normal" 
>
</g>
</g>

<clipPath id ="clip27" >
<rect x="0" y="0" height="320" width="1213" transform="matrix(1,0,0,1,80,49)" />
</clipPath>
<g  clip-path="url(#clip27)" 
>
<g fill="#4e79a7" fill-opacity="1" stroke="none" transform="matrix(1,0,0,1,80,49)"
font-family="Arial" font-size="19" font-weight="400" font-style="normal" 
>
</g>
</g>

<clipPath id ="clip28" >
<rect x="0" y="0" height="321" width="1214" transform="matrix(1,0,0,1,80,49)" />
</clipPath>
<g  clip-path="url(#clip28)" 
>
<g fill="#4e79a7" fill-opacity="1" stroke="none" transform="matrix(1,0,0,1,80,49)"
font-family="Arial" font-size="19" font-weight="400" font-style="normal" 
>
</g>
</g>

<clipPath id ="clip29" >
<rect x="0" y="0" height="320" width="1213" transform="matrix(1,0,0,1,80,49)" />
</clipPath>
<g  clip-path="url(#clip29)" 
>
<g fill="#4e79a7" fill-opacity="1" stroke="none" transform="matrix(1,0,0,1,80,49)"
font-family="Arial" font-size="19" font-weight="400" font-style="normal" 
>
</g>
</g>

<clipPath id ="clip30" >
<rect x="0" y="0" height="321" width="1214" transform="matrix(1,0,0,1,80,49)" />
</clipPath>
<g  clip-path="url(#clip30)" 
>
<g fill="#4e79a7" fill-opacity="1" stroke="none" transform="matrix(1,0,0,1,80,49)"
font-family="Arial" font-size="19" font-weight="400" font-style="normal" 
>
</g>
</g>

<clipPath id ="clip31" >
<rect x="0" y="0" height="321" width="1214" transform="matrix(1,0,0,1,80,49)" />
</clipPath>
<g  clip-path="url(#clip31)" 
>
<g fill="#4e79a7" fill-opacity="1" stroke="none" transform="matrix(1,0,0,1,80,49)"
font-family="Arial" font-size="19" font-weight="400" font-style="normal" 
>
</g>
</g>

<clipPath id ="clip32" >
<rect x="0" y="0" height="320" width="1213" transform="matrix(1,0,0,1,80,49)" />
</clipPath>
<g  clip-path="url(#clip32)" 
>
<g fill="#4e79a7" fill-opacity="1" stroke="none" transform="matrix(1,0,0,1,80,49)"
font-family="Arial" font-size="19" font-weight="400" font-style="normal" 
>
</g>
</g>

<clipPath id ="clip33" >
<rect x="0" y="0" height="321" width="1214" transform="matrix(1,0,0,1,80,49)" />
</clipPath>
<g  clip-path="url(#clip33)" 
>
<g fill="#4e79a7" fill-opacity="1" stroke="none" transform="matrix(1,0,0,1,80,49)"
font-family="Arial" font-size="19" font-weight="400" font-style="normal" 
>
</g>
</g>

<clipPath id ="clip34" >
<rect x="0" y="0" height="320" width="1213" transform="matrix(1,0,0,1,80,49)" />
</clipPath>
<g  clip-path="url(#clip34)" 
>
<g fill="#4e79a7" fill-opacity="1" stroke="none" transform="matrix(1,0,0,1,80,49)"
font-family="Arial" font-size="19" font-weight="400" font-style="normal" 
>
</g>
</g>

<clipPath id ="clip35" >
<rect x="0" y="0" height="321" width="1214" transform="matrix(1,0,0,1,80,49)" />
</clipPath>
<g  clip-path="url(#clip35)" 
>
<g fill="#4e79a7" fill-opacity="1" stroke="none" transform="matrix(1,0,0,1,80,49)"
font-family="Arial" font-size="19" font-weight="400" font-style="normal" 
>
</g>
</g>

<clipPath id ="clip36" >
<rect x="0" y="0" height="320" width="1213" transform="matrix(1,0,0,1,80,49)" />
</clipPath>
<g  clip-path="url(#clip36)" 
>
<g fill="#4e79a7" fill-opacity="1" stroke="none" transform="matrix(1,0,0,1,80,49)"
font-family="Arial" font-size="19" font-weight="400" font-style="normal" 
>
</g>
</g>

<clipPath id ="clip37" >
<rect x="0" y="0" height="321" width="1214" transform="matrix(1,0,0,1,80,49)" />
</clipPath>
<g  clip-path="url(#clip37)" 
>
<g fill="#4e79a7" fill-opacity="1" stroke="none" transform="matrix(1,0,0,1,80,49)"
font-family="Arial" font-size="19" font-weight="400" font-style="normal" 
>
</g>
</g>

<clipPath id ="clip38" >
<rect x="0" y="0" height="321" width="1214" transform="matrix(1,0,0,1,80,49)" />
</clipPath>
<g  clip-path="url(#clip38)" 
>
<g fill="#4e79a7" fill-opacity="1" stroke="none" transform="matrix(1,0,0,1,80,49)"
font-family="Arial" font-size="19" font-weight="400" font-style="normal" 
>
</g>
</g>

<clipPath id ="clip39" >
<rect x="0" y="0" height="320" width="1213" transform="matrix(1,0,0,1,80,49)" />
</clipPath>
<g  clip-path="url(#clip39)" 
>
<g fill="#4e79a7" fill-opacity="1" stroke="none" transform="matrix(1,0,0,1,80,49)"
font-family="Arial" font-size="19" font-weight="400" font-style="normal" 
>
</g>
</g>

<clipPath id ="clip40" >
<rect x="0" y="0" height="321" width="1214" transform="matrix(1,0,0,1,80,49)" />
</clipPath>
<g  clip-path="url(#clip40)" 
>
<g fill="#4e79a7" fill-opacity="1" stroke="none" transform="matrix(1,0,0,1,80,49)"
font-family="Arial" font-size="19" font-weight="400" font-style="normal" 
>
</g>
</g>

<clipPath id ="clip41" >
<rect x="0" y="0" height="320" width="1213" transform="matrix(1,0,0,1,80,49)" />
</clipPath>
<g  clip-path="url(#clip41)" 
>
<g fill="#4e79a7" fill-opacity="1" stroke="none" transform="matrix(1,0,0,1,80,49)"
font-family="Arial" font-size="19" font-weight="400" font-style="normal" 
>
</g>
</g>

<clipPath id ="clip42" >
<rect x="0" y="0" height="321" width="1214" transform="matrix(1,0,0,1,80,49)" />
</clipPath>
<g  clip-path="url(#clip42)" 
>
<g fill="#4e79a7" fill-opacity="1" stroke="none" transform="matrix(1,0,0,1,80,49)"
font-family="Arial" font-size="19" font-weight="400" font-style="normal" 
>
</g>
</g>

<clipPath id ="clip43" >
<rect x="0" y="0" height="320" width="1213" transform="matrix(1,0,0,1,80,49)" />
</clipPath>
<g  clip-path="url(#clip43)" 
>
<g fill="#4e79a7" fill-opacity="1" stroke="none" transform="matrix(1,0,0,1,80,49)"
font-family="Arial" font-size="19" font-weight="400" font-style="normal" 
>
</g>
</g>

<clipPath id ="clip44" >
<rect x="0" y="0" height="321" width="1214" transform="matrix(1,0,0,1,80,49)" />
</clipPath>
<g  clip-path="url(#clip44)" 
>
<g fill="#4e79a7" fill-opacity="1" stroke="none" transform="matrix(1,0,0,1,80,49)"
font-family="Arial" font-size="19" font-weight="400" font-style="normal" 
>
</g>
</g>

<clipPath id ="clip45" >
<rect x="0" y="0" height="321" width="1214" transform="matrix(1,0,0,1,80,49)" />
</clipPath>
<g  clip-path="url(#clip45)" 
>
<g fill="#4e79a7" fill-opacity="1" stroke="none" transform="matrix(1,0,0,1,80,49)"
font-family="Arial" font-size="19" font-weight="400" font-style="normal" 
>
</g>
</g>

<clipPath id ="clip46" >
<rect x="0" y="0" height="320" width="1213" transform="matrix(1,0,0,1,80,49)" />
</clipPath>
<g  clip-path="url(#clip46)" 
>
<g fill="#4e79a7" fill-opacity="1" stroke="none" transform="matrix(1,0,0,1,80,49)"
font-family="Arial" font-size="19" font-weight="400" font-style="normal" 
>
</g>
</g>

<clipPath id ="clip47" >
<rect x="0" y="0" height="321" width="1214" transform="matrix(1,0,0,1,80,49)" />
</clipPath>
<g  clip-path="url(#clip47)" 
>
<g fill="#4e79a7" fill-opacity="1" stroke="none" transform="matrix(1,0,0,1,80,49)"
font-family="Arial" font-size="19" font-weight="400" font-style="normal" 
>
</g>
</g>

<clipPath id ="clip48" >
<rect x="0" y="0" height="320" width="1213" transform="matrix(1,0,0,1,80,49)" />
</clipPath>
<g  clip-path="url(#clip48)" 
>
<g fill="#4e79a7" fill-opacity="1" stroke="none" transform="matrix(1,0,0,1,80,49)"
font-family="Arial" font-size="19" font-weight="400" font-style="normal" 
>
</g>
</g>

<clipPath id ="clip49" >
<rect x="0" y="0" height="321" width="1214" transform="matrix(1,0,0,1,80,49)" />
</clipPath>
<g  clip-path="url(#clip49)" 
>
<g fill="#4e79a7" fill-opacity="1" stroke="none" transform="matrix(1,0,0,1,80,49)"
font-family="Arial" font-size="19" font-weight="400" font-style="normal" 
>
</g>
</g>

<clipPath id ="clip50" >
<rect x="0" y="0" height="320" width="1213" transform="matrix(1,0,0,1,80,49)" />
</clipPath>
<g  clip-path="url(#clip50)" 
>
<g fill="#4e79a7" fill-opacity="1" stroke="none" transform="matrix(1,0,0,1,80,49)"
font-family="Arial" font-size="19" font-weight="400" font-style="normal" 
>
</g>
</g>

<clipPath id ="clip51" >
<rect x="0" y="0" height="321" width="1214" transform="matrix(1,0,0,1,80,49)" />
</clipPath>
<g  clip-path="url(#clip51)" 
>
<g fill="#4e79a7" fill-opacity="1" stroke="none" transform="matrix(1,0,0,1,80,49)"
font-family="Arial" font-size="19" font-weight="400" font-style="normal" 
>
</g>
</g>

<clipPath id ="clip52" >
<rect x="0" y="0" height="321" width="1214" transform="matrix(1,0,0,1,80,49)" />
</clipPath>
<g  clip-path="url(#clip52)" 
>
<g fill="#4e79a7" fill-opacity="1" stroke="none" transform="matrix(1,0,0,1,80,49)"
font-family="Arial" font-size="19" font-weight="400" font-style="normal" 
>
</g>
</g>

<clipPath id ="clip53" >
<rect x="0" y="0" height="321" width="1214" transform="matrix(1,0,0,1,80,49)" />
</clipPath>
<g  clip-path="url(#clip53)" 
>
<g fill="#4e79a7" fill-opacity="1" stroke="none" transform="matrix(1,0,0,1,80,49)"
font-family="Arial" font-size="19" font-weight="400" font-style="normal" 
>
</g>
</g>

<g  clip-path="url(#clip53)" 
>
<g fill="none" stroke="#f5f5f5" stroke-opacity="1" stroke-width="1" stroke-linecap="square" stroke-linejoin="bevel" transform="matrix(1,0,0,1,80,49)"
font-family="Arial" font-size="19" font-weight="400" font-style="normal" 
>
<polyline fill="none" vector-effect="none" points="0,320 1213,320 " />
<polyline fill="none" vector-effect="none" points="0,0 0,320 " />
</g>
</g>

<clipPath id ="clip54" >
<rect x="0" y="0" height="321" width="1214" transform="matrix(1,0,0,1,80,49)" />
</clipPath>
<g  clip-path="url(#clip54)" 
>
<g fill="none" stroke="#f5f5f5" stroke-opacity="1" stroke-width="1" stroke-linecap="square" stroke-linejoin="bevel" transform="matrix(1,0,0,1,80,49)"
font-family="Arial" font-size="19" font-weight="400" font-style="normal" 
>
</g>
</g>

<g >
<g fill="none" stroke="#f5f5f5" stroke-opacity="1" stroke-width="1" stroke-linecap="square" stroke-linejoin="bevel" transform="matrix(1,0,0,1,80,49)"
font-family="Arial" font-size="19" font-weight="400" font-style="normal" 
>
</g>
</g>

<g >
<g fill="none" stroke="#333333" stroke-opacity="1" stroke-width="1" stroke-linecap="square" stroke-linejoin="bevel" transform="matrix(1,0,0,1,0,0)"
font-family="Arial" font-size="24" font-weight="400" font-style="normal" 
>
<text fill="#333333" fill-opacity="1" stroke="none" xml:space="preserve" x="4" y="31" font-family="Arial" font-size="24" font-weight="400" font-style="normal" 
 >Counts of land use codes (in year prior to conversion)</text>
</g>
</g>
</g>
</svg>
